<svg width="41" height="41" viewBox="0 0 41 41" fill="none" xmlns="http://www.w3.org/2000/svg">
<g clip-path="url(#clip0_2711_268)">
<path d="M15.5217 14.115H2.96655C1.35117 14.115 0.0371094 12.7988 0.0371094 11.1806V3.6357C0.0371094 2.01779 1.35117 0.70166 2.96655 0.70166H15.5217C17.1374 0.70166 18.4515 2.01779 18.4515 3.6357V11.1806C18.4515 12.7988 17.1374 14.115 15.5217 14.115ZM2.96655 3.21664C2.73574 3.21664 2.54815 3.40452 2.54815 3.6357V11.1806C2.54815 11.4121 2.73574 11.6 2.96655 11.6H15.5217C15.7529 11.6 15.9405 11.4121 15.9405 11.1806V3.6357C15.9405 3.40452 15.7529 3.21664 15.5217 3.21664H2.96655Z" fill="#0C848D"/>
<path d="M15.5217 40.9412H2.96655C1.35117 40.9412 0.0371094 39.6251 0.0371094 38.0072V20.4024C0.0371094 18.7841 1.35117 17.468 2.96655 17.468H15.5217C17.1374 17.468 18.4515 18.7841 18.4515 20.4024V38.0072C18.4515 39.6251 17.1374 40.9412 15.5217 40.9412ZM2.96655 19.983C2.73574 19.983 2.54815 20.1709 2.54815 20.4024V38.0072C2.54815 38.2384 2.73574 38.4262 2.96655 38.4262H15.5217C15.7529 38.4262 15.9405 38.2384 15.9405 38.0072V20.4024C15.9405 20.1709 15.7529 19.983 15.5217 19.983H2.96655Z" fill="#0C848D"/>
<path d="M37.2843 40.9413H24.7291C23.1134 40.9413 21.7993 39.6251 21.7993 38.0072V30.4623C21.7993 28.8441 23.1134 27.528 24.7291 27.528H37.2843C38.8996 27.528 40.2137 28.8441 40.2137 30.4623V38.0072C40.2137 39.6251 38.8996 40.9413 37.2843 40.9413ZM24.7291 30.0429C24.4979 30.0429 24.3104 30.2308 24.3104 30.4623V38.0072C24.3104 38.2384 24.4979 38.4263 24.7291 38.4263H37.2843C37.5151 38.4263 37.7027 38.2384 37.7027 38.0072V30.4623C37.7027 30.2308 37.5151 30.0429 37.2843 30.0429H24.7291Z" fill="#0C848D"/>
<path d="M37.2843 24.1749H24.7291C23.1134 24.1749 21.7993 22.8587 21.7993 21.2405V3.6357C21.7993 2.01779 23.1134 0.70166 24.7291 0.70166H37.2843C38.8996 0.70166 40.2137 2.01779 40.2137 3.6357V21.2405C40.2137 22.8587 38.8996 24.1749 37.2843 24.1749ZM24.7291 3.21664C24.4979 3.21664 24.3104 3.40452 24.3104 3.6357V21.2405C24.3104 21.472 24.4979 21.6599 24.7291 21.6599H37.2843C37.5151 21.6599 37.7027 21.472 37.7027 21.2405V3.6357C37.7027 3.40452 37.5151 3.21664 37.2843 3.21664H24.7291Z" fill="#0C848D"/>
</g>
<defs>
<clipPath id="clip0_2711_268">
<rect width="40.1766" height="40.2396" fill="white" transform="translate(0.0371094 0.70166)"/>
</clipPath>
</defs>
</svg>
