<svg width="42" height="42" viewBox="0 0 42 42" fill="none" xmlns="http://www.w3.org/2000/svg">
<path d="M19.4375 31.9375C17.5833 31.9375 15.7707 31.3877 14.229 30.3575C12.6873 29.3274 11.4857 27.8632 10.7761 26.1502C10.0666 24.4371 9.88091 22.5521 10.2426 20.7335C10.6044 18.915 11.4973 17.2445 12.8084 15.9334C14.1195 14.6223 15.79 13.7294 17.6085 13.3676C19.4271 13.0059 21.3121 13.1916 23.0252 13.9011C24.7382 14.6107 26.2025 15.8123 27.2325 17.354C28.2627 18.8957 28.8125 20.7083 28.8125 22.5625C28.81 25.0481 27.8215 27.4313 26.0639 29.1889C24.3063 30.9465 21.9231 31.935 19.4375 31.9375ZM19.4375 16.3125C18.2014 16.3125 16.993 16.6791 15.9652 17.3658C14.9374 18.0526 14.1363 19.0287 13.6633 20.1707C13.1902 21.3128 13.0664 22.5694 13.3076 23.7818C13.5488 24.9942 14.144 26.1078 15.0181 26.9819C15.8922 27.856 17.0058 28.4513 18.2182 28.6924C19.4306 28.9336 20.6872 28.8098 21.8293 28.3368C22.9713 27.8637 23.9474 27.0626 24.6342 26.0348C25.3209 25.007 25.6875 23.7986 25.6875 22.5625C25.6875 20.9049 25.029 19.3152 23.8569 18.1431C22.6848 16.971 21.0951 16.3125 19.4375 16.3125Z" fill="#171938"/>
<path d="M19.4375 41.3125C15.7291 41.3125 12.104 40.2128 9.02057 38.1526C5.93715 36.0923 3.53391 33.1639 2.11477 29.7378C0.695624 26.3117 0.324312 22.5417 1.04778 18.9046C1.77126 15.2674 3.55702 11.9265 6.17926 9.30426C8.80149 6.68202 12.1424 4.89626 15.7796 4.17278C19.4167 3.44931 23.1867 3.82062 26.6128 5.23977C30.0389 6.65891 32.9673 9.06215 35.0276 12.1456C37.0878 15.229 38.1875 18.8541 38.1875 22.5625C38.1821 27.5337 36.205 32.2997 32.6898 35.8148C29.1747 39.33 24.4087 41.3071 19.4375 41.3125ZM19.4375 6.93751C16.3472 6.93751 13.3262 7.8539 10.7567 9.5708C8.18721 11.2877 6.18451 13.728 5.00189 16.5831C3.81927 19.4382 3.50984 22.5798 4.11274 25.6108C4.71563 28.6417 6.20377 31.4259 8.38896 33.6111C10.5742 35.7962 13.3583 37.2844 16.3892 37.8873C19.4202 38.4902 22.5618 38.1807 25.4169 36.9981C28.272 35.8155 30.7123 33.8128 32.4292 31.2433C34.1461 28.6738 35.0625 25.6528 35.0625 22.5625C35.058 18.4199 33.4103 14.4483 30.481 11.519C27.5518 8.58972 23.5801 6.94206 19.4375 6.93751Z" fill="#171938"/>
<path d="M40.4489 5.53907L37.7926 4.21095L36.4645 1.5547C36.3224 1.26883 36.0962 1.03334 35.8163 0.879918C35.5363 0.726492 35.2161 0.662493 34.8987 0.696531C34.5813 0.730569 34.2819 0.861012 34.0409 1.07031C33.7998 1.2796 33.6287 1.55771 33.5504 1.8672L32.0942 7.70001L18.3442 21.4578C18.195 21.602 18.0759 21.7744 17.994 21.965C17.9122 22.1556 17.869 22.3607 17.8672 22.5681C17.8654 22.7756 17.905 22.9813 17.9835 23.1734C18.0621 23.3654 18.1781 23.5399 18.3248 23.6866C18.4715 23.8333 18.646 23.9493 18.838 24.0279C19.03 24.1064 19.2358 24.146 19.4433 24.1442C19.6507 24.1424 19.8558 24.0992 20.0464 24.0174C20.237 23.9355 20.4094 23.8164 20.5536 23.6672L34.3036 9.9172L40.1333 8.45939C40.4428 8.38115 40.7209 8.21 40.9302 7.96896C41.1395 7.72791 41.2699 7.42855 41.3039 7.11114C41.338 6.79373 41.274 6.47351 41.1205 6.19357C40.9671 5.91363 40.7316 5.6874 40.4458 5.54532L40.4489 5.53907Z" fill="#1351D8"/>
</svg>
