<svg width="45" height="45" viewBox="0 0 45 45" fill="none" xmlns="http://www.w3.org/2000/svg">
<path fill-rule="evenodd" clip-rule="evenodd" d="M35.5829 26.915C30.7952 26.915 26.9139 30.7962 26.9139 35.584C26.9139 40.3718 30.7952 44.2529 35.5829 44.2529C40.3707 44.2529 44.2518 40.3718 44.2518 35.584C44.2518 30.7963 40.3707 26.915 35.5829 26.915ZM40.6425 33.4078L34.5128 39.5373C33.9571 40.0931 33.0389 40.0057 32.5929 39.367L30.0138 36.1216C29.583 35.5794 29.6729 34.7904 30.2152 34.3593C30.7575 33.9282 31.5464 34.0182 31.9777 34.5605L33.7301 36.7659L38.8654 31.6306C39.356 31.1399 40.1519 31.1399 40.6425 31.6306C41.1331 32.1213 41.1331 32.9171 40.6425 33.4078ZM3.44029 7.46772L6.00872 7.26152C2.16315 11.4203 0.0429688 16.8349 0.0429688 22.5C0.0429688 27.0836 1.4305 31.5316 4.04612 35.2967C4.2677 35.6152 4.70548 35.694 5.02391 35.4725C5.34233 35.251 5.42126 34.8132 5.19969 34.4947C2.74358 30.9592 1.44922 26.8039 1.44922 22.5C1.44922 17.2174 3.40224 12.1842 6.96937 8.28879L6.76836 10.7955C6.73795 11.1823 7.02702 11.5205 7.41383 11.5508C7.80055 11.5813 8.13875 11.2923 8.16916 10.9054L8.52433 6.47789C8.56502 6.04758 8.20432 5.67668 7.77005 5.71069L3.33052 6.067C2.9438 6.09732 2.65481 6.43544 2.68505 6.82233C2.71537 7.20896 3.05357 7.49804 3.44029 7.46772ZM10.5043 5.20075C14.0397 2.74465 18.1953 1.4502 22.499 1.4502C27.7816 1.4502 32.8148 3.4033 36.7103 6.97043L34.2036 6.76934C33.8169 6.73901 33.4787 7.02791 33.4483 7.4148C33.4179 7.80152 33.7069 8.13981 34.0937 8.17014L38.5212 8.5253C38.9515 8.566 39.3223 8.20529 39.2884 7.77094L38.9322 3.33158C38.9018 2.94478 38.5637 2.65588 38.1769 2.68611C37.7901 2.71635 37.5011 3.05455 37.5314 3.44145L37.7376 6.00979C33.5789 2.16422 28.164 0.0439453 22.499 0.0439453C17.9155 0.0439453 13.4674 1.43147 9.70232 4.04719C9.3839 4.26867 9.30506 4.70646 9.52654 5.02497C9.74803 5.34349 10.1859 5.42215 10.5043 5.20075ZM39.7982 10.5053C39.5767 10.1868 39.6555 9.74909 39.974 9.52761C40.2926 9.30604 40.7303 9.38487 40.9517 9.70339C43.5675 13.4684 44.9551 17.9165 44.9551 22.5C44.9551 25.0205 44.5383 27.4459 43.7698 29.7112C43.4471 29.2619 43.0883 28.8401 42.6974 28.4502C43.2514 26.5649 43.5489 24.5681 43.5489 22.5C43.5488 18.1962 42.2545 14.0408 39.7982 10.5053ZM29.71 43.7709C29.2606 43.4478 28.8387 43.0889 28.4486 42.698C26.5643 43.2523 24.5677 43.5498 22.499 43.5498C17.2164 43.5498 12.1834 41.5968 8.28772 38.0297L10.7945 38.2308C11.1812 38.2611 11.5194 37.9721 11.5498 37.5853C11.5802 37.1985 11.2911 36.8603 10.9043 36.83L6.47683 36.4747C6.04651 36.4341 5.6757 36.7948 5.70963 37.2291L6.06585 41.6685C6.09626 42.0552 6.43438 42.3442 6.82118 42.314C7.20799 42.2837 7.49697 41.9454 7.46665 41.5586L7.26046 38.9903C11.4194 42.836 16.834 44.9561 22.499 44.9561C24.9522 44.9561 27.3867 44.5587 29.71 43.7709ZM34.1519 20.1643C33.8432 18.6177 33.235 17.1794 32.3896 15.9127L34.0479 14.2545L30.7446 10.9513L29.0865 12.6094C27.8197 11.7641 26.3815 11.1555 24.8346 10.8472V8.50324H20.1632V10.8472C18.6165 11.1556 17.1782 11.7639 15.9115 12.6094L14.2533 10.9513L10.9502 14.2545L12.6083 15.9125C11.7628 17.1794 11.1545 18.6176 10.846 20.1643H8.50227V24.8357H10.846C11.1545 26.3824 11.7628 27.8209 12.6083 29.0876L10.9502 30.7456L14.2533 34.0489L15.9115 32.3909C17.1784 33.2362 18.6165 33.8447 20.1632 34.1531V36.4968H24.8346V34.1531C25.106 34.0989 25.3738 34.0356 25.6382 33.9634C26.328 29.6975 29.6963 26.3292 33.9622 25.6392C34.0345 25.3749 34.0977 25.107 34.1519 24.8357H36.4958V20.1643H34.1519ZM22.4988 29.7785C18.4793 29.7785 15.2205 26.5199 15.2205 22.5001C15.2205 18.4803 18.4792 15.2218 22.4988 15.2218C26.5185 15.2218 29.7773 18.4803 29.7773 22.5001C29.7773 26.5199 26.5184 29.7785 22.4988 29.7785Z" fill="#0C848C"/>
</svg>
