<svg width="40" height="40" viewBox="0 0 40 40" fill="none" xmlns="http://www.w3.org/2000/svg">
<path d="M22.75 22.75H17.25C16.5207 22.75 15.8212 23.0397 15.3055 23.5555C14.7897 24.0712 14.5 24.7707 14.5 25.5V36.5C14.5 37.2293 14.7897 37.9288 15.3055 38.4445C15.8212 38.9603 16.5207 39.25 17.25 39.25H22.75C23.4793 39.25 24.1788 38.9603 24.6945 38.4445C25.2103 37.9288 25.5 37.2293 25.5 36.5V25.5C25.5 24.7707 25.2103 24.0712 24.6945 23.5555C24.1788 23.0397 23.4793 22.75 22.75 22.75ZM17.25 36.5V25.5H22.75V36.5H17.25Z" fill="#171938"/>
<path d="M9 26.875H3.5C2.77065 26.875 2.07118 27.1647 1.55546 27.6805C1.03973 28.1962 0.75 28.8957 0.75 29.625V36.5C0.75 37.2293 1.03973 37.9288 1.55546 38.4445C2.07118 38.9603 2.77065 39.25 3.5 39.25H9C9.72935 39.25 10.4288 38.9603 10.9445 38.4445C11.4603 37.9288 11.75 37.2293 11.75 36.5V29.625C11.75 28.8957 11.4603 28.1962 10.9445 27.6805C10.4288 27.1647 9.72935 26.875 9 26.875ZM3.5 36.5V29.625H9V36.5H3.5Z" fill="#171938"/>
<path d="M36.5 15.875H31C30.2707 15.875 29.5712 16.1647 29.0555 16.6805C28.5397 17.1962 28.25 17.8957 28.25 18.625V36.5C28.25 37.2293 28.5397 37.9288 29.0555 38.4445C29.5712 38.9603 30.2707 39.25 31 39.25H36.5C37.2293 39.25 37.9288 38.9603 38.4445 38.4445C38.9603 37.9288 39.25 37.2293 39.25 36.5V18.625C39.25 17.8957 38.9603 17.1962 38.4445 16.6805C37.9288 16.1647 37.2293 15.875 36.5 15.875ZM31 36.5V18.625H36.5V36.5H31Z" fill="#171938"/>
<path d="M35.1255 0.75H28.2505C27.8858 0.75 27.5361 0.894866 27.2782 1.15273C27.0203 1.41059 26.8755 1.76033 26.8755 2.125C26.8755 2.48967 27.0203 2.83941 27.2782 3.09727C27.5361 3.35513 27.8858 3.5 28.2505 3.5H31.93C28.2276 7.36223 23.9819 10.664 19.3267 13.301C15.1092 15.669 10.5986 17.4719 5.91084 18.6635C5.73501 18.7073 5.56957 18.7854 5.42403 18.8934C5.27849 19.0013 5.15573 19.137 5.06279 19.2925C4.96985 19.4481 4.90858 19.6205 4.88249 19.7998C4.8564 19.9791 4.86601 20.1618 4.91077 20.3374C4.95553 20.513 5.03455 20.678 5.14329 20.8229C5.25203 20.9678 5.38835 21.0899 5.54441 21.182C5.70047 21.274 5.87319 21.3344 6.05265 21.3595C6.2321 21.3846 6.41475 21.374 6.59009 21.3282C11.5116 20.0745 16.2469 18.1791 20.6742 15.6908C25.4937 12.9684 29.8974 9.56817 33.7505 5.59412V9C33.7505 9.36467 33.8953 9.71441 34.1532 9.97227C34.4111 10.2301 34.7608 10.375 35.1255 10.375C35.4901 10.375 35.8399 10.2301 36.0977 9.97227C36.3556 9.71441 36.5005 9.36467 36.5005 9V2.125C36.5005 1.76033 36.3556 1.41059 36.0977 1.15273C35.8399 0.894866 35.4901 0.75 35.1255 0.75Z" fill="#1351D8"/>
</svg>
