<svg width="78" height="68" viewBox="0 0 78 68" fill="none" xmlns="http://www.w3.org/2000/svg">
<path d="M77.2825 21.6094L66.0563 13.7536V2.27867C65.9437 1.14198 65.0598 0.229652 63.9179 0.0720215H14.7369C13.5951 0.229821 12.7111 1.14198 12.5985 2.27867V13.6652L0.926861 21.6092C0.464537 21.9417 0.171727 22.4575 0.125 23.0215V64.9486C0.276777 66.0993 1.19085 67.005 2.35237 67.1552H76.3024C77.2825 67.1552 77.6389 66.0077 77.6389 64.9486V23.0217C77.6389 22.492 77.7279 21.9623 77.2825 21.6094ZM66.0563 17.9903L73.7186 23.198L66.0563 28.9354V17.9903ZM16.1624 3.60273H62.4924V31.6719L39.3273 48.9723L16.1622 31.6719V3.60273H16.1624ZM12.5985 17.9021V29.0239L4.93616 23.1982L12.5985 17.9021ZM3.68886 26.8171L28.6359 45.5298L3.68886 62.2124V26.8171ZM7.96557 63.6247L31.6651 47.8248L37.991 52.5912C38.3491 52.8654 38.7859 53.02 39.2383 53.0325C39.5947 53.0325 39.7729 52.856 40.1292 52.5912L46.7223 47.5599L70.6892 63.6247H7.96557ZM74.0751 61.5946L49.6627 45.3533L74.0751 26.8171V61.5946Z" fill="#256BFE"/>
<path d="M25.071 15.0776H33.0896C34.0738 15.0776 34.8715 14.2872 34.8715 13.3122C34.8715 12.3372 34.0738 11.5469 33.0896 11.5469H25.071C24.0868 11.5469 23.2891 12.3372 23.2891 13.3122C23.2891 14.2872 24.0868 15.0776 25.071 15.0776Z" fill="#256BFE"/>
<path d="M25.071 23.0217H53.5819C54.5661 23.0217 55.3638 22.2313 55.3638 21.2563C55.3638 20.2813 54.5661 19.491 53.5819 19.491H25.071C24.0868 19.491 23.2891 20.2813 23.2891 21.2563C23.2891 22.2313 24.0868 23.0217 25.071 23.0217Z" fill="#256BFE"/>
<path d="M55.3637 29.2007C55.3637 28.2257 54.5659 27.4353 53.5817 27.4353H25.071C24.0868 27.4353 23.2891 28.2257 23.2891 29.2007C23.2891 30.1757 24.0868 30.966 25.071 30.966H53.5819C54.5659 30.966 55.3637 30.1757 55.3637 29.2007Z" fill="#256BFE"/>
</svg>
