<svg width="50" height="50" viewBox="0 0 50 50" fill="none" xmlns="http://www.w3.org/2000/svg">
<g clip-path="url(#clip0_2659_218)">
<path d="M38.5417 0H3.125C1.39912 0 0 1.39912 0 3.125V28.125C0 29.8509 1.39912 31.25 3.125 31.25H16.6667V29.1667H3.125C2.54971 29.1667 2.0833 28.7003 2.0833 28.125V3.125C2.0833 2.54971 2.54971 2.0833 3.125 2.0833H38.5417C39.117 2.0833 39.5834 2.54971 39.5834 3.125V21.875H41.6667V3.125C41.6667 1.39912 40.2676 0 38.5417 0Z" fill="#30E87A"/>
<path d="M14.5833 30.2083H12.5V36.4583H14.5833V30.2083Z" fill="#30E87A"/>
<path d="M7.29102 25C6.71572 25 6.24932 24.5336 6.24932 23.9583V21.875H4.16602V23.9583C4.16602 25.6842 5.56514 27.0833 7.29102 27.0833H9.37432V25H7.29102Z" fill="#30E87A"/>
<path d="M6.24932 17.7083H4.16602V19.7916H6.24932V17.7083Z" fill="#30E87A"/>
<path d="M38.0693 22.0645C35.9467 19.9415 33.0675 18.7488 30.0653 18.7489C23.8147 18.7492 18.7479 23.8165 18.748 30.0671C18.7483 36.3177 23.8156 41.3845 30.0662 41.3844C33.0674 41.3843 35.9455 40.1922 38.0679 38.0702C42.4881 33.6508 42.4888 26.4848 38.0693 22.0645ZM30.06 39.302C24.96 39.3003 20.827 35.1645 20.8287 30.0645C20.8305 24.9645 24.9662 20.8315 30.0662 20.8333C32.5175 20.8266 34.8693 21.802 36.5964 23.5416C38.3267 25.2738 39.2982 27.6223 39.2975 30.0708C39.2957 35.1708 35.16 39.3038 30.06 39.302Z" fill="#30E87A"/>
<path d="M49.6953 45.3126L43.1567 38.7761C42.9614 38.5808 42.6965 38.4709 42.4203 38.4709C42.144 38.471 41.8792 38.5808 41.6839 38.7761L38.7776 41.6824C38.371 42.0891 38.371 42.7485 38.7776 43.1553L45.3162 49.6949C45.5115 49.8903 45.7765 50.0001 46.0526 50.0001C46.3293 49.9992 46.5943 49.8882 46.7891 49.6917L49.6953 46.7855C50.102 46.3787 50.102 45.7193 49.6953 45.3126ZM46.0525 47.4855L40.9869 42.4188L42.4202 40.9855L47.4858 46.0522L46.0525 47.4855Z" fill="#30E87A"/>
<path d="M38.0688 36.596L36.5957 38.0691L40.2284 41.7018L41.7015 40.2287L38.0688 36.596Z" fill="#30E87A"/>
<path d="M30.209 22.9167V25C33.0841 25.0035 35.4139 27.3333 35.4173 30.2083H37.5006C37.4961 26.1833 34.2342 22.9213 30.209 22.9167Z" fill="#30E87A"/>
<path d="M18.7493 35.4167H10.416V37.5H18.7493V35.4167Z" fill="#30E87A"/>
<path d="M15.625 4.16675C13.8991 4.16675 12.5 5.56587 12.5 7.29175C12.5 9.01763 13.8991 10.4167 15.625 10.4167C17.3509 10.4167 18.75 9.01763 18.75 7.29175C18.75 5.56587 17.3509 4.16675 15.625 4.16675ZM15.625 8.33335C15.0497 8.33335 14.5833 7.86694 14.5833 7.29165C14.5833 6.71636 15.0497 6.24995 15.625 6.24995C16.2003 6.24995 16.6667 6.71636 16.6667 7.29165C16.6667 7.86704 16.2003 8.33335 15.625 8.33335Z" fill="#30E87A"/>
<path d="M22.916 11.4583C21.1901 11.4583 19.791 12.8574 19.791 14.5833C19.791 16.3091 21.1901 17.7083 22.916 17.7083C24.6419 17.7083 26.041 16.3091 26.041 14.5833C26.041 12.8574 24.6419 11.4583 22.916 11.4583ZM22.916 15.625C22.3407 15.625 21.8743 15.1585 21.8743 14.5833C21.8743 14.008 22.3407 13.5416 22.916 13.5416C23.4913 13.5416 23.9577 14.008 23.9577 14.5833C23.9576 15.1585 23.4913 15.625 22.916 15.625Z" fill="#30E87A"/>
<path d="M13.8469 7.59719L8.63867 12.8054L10.1118 14.2785L15.32 9.07029L13.8469 7.59719Z" fill="#30E87A"/>
<path d="M17.3989 7.59977L15.9258 9.07288L21.134 14.2811L22.6071 12.808L17.3989 7.59977Z" fill="#30E87A"/>
<path d="M30.209 4.16675C28.4831 4.16675 27.084 5.56587 27.084 7.29175C27.084 9.01763 28.4831 10.4167 30.209 10.4167C31.9349 10.4167 33.334 9.01763 33.334 7.29175C33.3341 5.56587 31.935 4.16675 30.209 4.16675ZM30.209 8.33335C29.6337 8.33335 29.1673 7.86694 29.1673 7.29165C29.1673 6.71636 29.6337 6.24995 30.209 6.24995C30.7843 6.24995 31.2507 6.71636 31.2507 7.29165C31.2507 7.86704 30.7843 8.33335 30.209 8.33335Z" fill="#30E87A"/>
<path d="M28.4289 7.60085L23.2207 12.8091L24.6938 14.2822L29.902 9.07395L28.4289 7.60085Z" fill="#30E87A"/>
</g>
<defs>
<clipPath id="clip0_2659_218">
<rect width="50" height="50" fill="white"/>
</clipPath>
</defs>
</svg>
