<svg width="18" height="22" viewBox="0 0 18 22" fill="none" xmlns="http://www.w3.org/2000/svg">
<path d="M7.586 3.99984L5.757 2.17184L7.172 0.756836L11.414 4.99984L7.172 9.24284L5.757 7.82784L7.586 5.99984H5C4.20435 5.99984 3.44129 6.31591 2.87868 6.87852C2.31607 7.44112 2 8.20419 2 8.99984V12.9998H0V8.99984C0 7.67375 0.526784 6.40198 1.46447 5.4643C2.40215 4.52662 3.67392 3.99984 5 3.99984H7.586ZM6 10.9998C6 10.7346 6.10536 10.4803 6.29289 10.2927C6.48043 10.1052 6.73478 9.99984 7 9.99984H17C17.2652 9.99984 17.5196 10.1052 17.7071 10.2927C17.8946 10.4803 18 10.7346 18 10.9998V20.9998C18 21.2651 17.8946 21.5194 17.7071 21.7069C17.5196 21.8945 17.2652 21.9998 17 21.9998H7C6.73478 21.9998 6.48043 21.8945 6.29289 21.7069C6.10536 21.5194 6 21.2651 6 20.9998V10.9998ZM8 11.9998V19.9998H16V11.9998H8Z" fill="#150E3D"/>
</svg>
