<svg width="14" height="16" viewBox="0 0 14 16" fill="none" xmlns="http://www.w3.org/2000/svg">
<path d="M13.9977 0.771556L14 14.784C13.9984 14.9883 13.9165 15.1837 13.7719 15.328C13.6274 15.4724 13.4319 15.5541 13.2277 15.5556H0.772333C0.567632 15.5556 0.371304 15.4743 0.226486 15.3296C0.0816678 15.1849 0.000206144 14.9887 0 14.784V0.771556C0.00162917 0.567296 0.0835473 0.371875 0.228058 0.22751C0.372569 0.0831447 0.568072 0.00142337 0.772333 0H13.2246C13.6516 0 13.9977 0.345333 13.9977 0.771556ZM4.66667 8.55556V5.44444C4.66667 5.23816 4.74861 5.04033 4.89447 4.89447C5.04033 4.74861 5.23816 4.66667 5.44444 4.66667C5.65072 4.66667 5.84855 4.74861 5.99442 4.89447C6.14028 5.04033 6.22222 5.23816 6.22222 5.44444V8.55556C6.22222 8.76184 6.30417 8.95967 6.45003 9.10553C6.59589 9.25139 6.79372 9.33333 7 9.33333C7.20628 9.33333 7.40411 9.25139 7.54997 9.10553C7.69583 8.95967 7.77778 8.76184 7.77778 8.55556V5.44444C7.77778 4.82561 7.53195 4.23211 7.09436 3.79453C6.65678 3.35694 6.06328 3.11111 5.44444 3.11111C4.82561 3.11111 4.23211 3.35694 3.79453 3.79453C3.35694 4.23211 3.11111 4.82561 3.11111 5.44444V8.55556C3.11111 9.58695 3.52083 10.5761 4.25014 11.3054C4.97945 12.0347 5.9686 12.4444 7 12.4444C8.0314 12.4444 9.02055 12.0347 9.74986 11.3054C10.4792 10.5761 10.8889 9.58695 10.8889 8.55556V4.66667H9.33333V8.55556C9.33333 9.17439 9.0875 9.76789 8.64992 10.2055C8.21233 10.6431 7.61884 10.8889 7 10.8889C6.38116 10.8889 5.78767 10.6431 5.35008 10.2055C4.9125 9.76789 4.66667 9.17439 4.66667 8.55556Z" fill="#150E3D"/>
</svg>
