<svg width="41" height="41" viewBox="0 0 41 41" fill="none" xmlns="http://www.w3.org/2000/svg">
<path d="M40.7522 24.1644C35.1489 18.5696 35.576 18.954 35.3454 18.86C35.1147 18.766 35.875 18.7917 25.6249 18.7917C25.6249 15.2469 25.6677 14.4525 25.5566 14.1877C25.2747 13.3335 26.8037 17.1688 21.2858 3.93771C21.2201 3.78363 21.1107 3.65224 20.9709 3.55989C20.8312 3.46754 20.6674 3.4183 20.4999 3.4183C20.3325 3.4183 20.1687 3.46754 20.029 3.55989C19.8892 3.65224 19.7798 3.78363 19.7141 3.93771C15.1614 14.8454 15.4433 14.0767 15.392 14.4098C15.3408 14.7429 15.3749 13.6667 15.3749 18.7917C5.17619 18.7917 5.71432 18.6977 5.37265 19.0394C-0.145268 24.5658 -0.230685 24.3779 0.0682736 25.0954C0.367232 25.8129 0.708899 25.625 5.12494 25.625V40.1458C5.12494 40.3724 5.21493 40.5896 5.37512 40.7498C5.53531 40.91 5.75257 41 5.97911 41H35.0208C35.2473 41 35.4646 40.91 35.6248 40.7498C35.785 40.5896 35.875 40.3724 35.875 40.1458V25.625C40.3764 25.625 40.6412 25.7958 40.9316 25.0954C40.997 24.9399 41.0149 24.7684 40.983 24.6027C40.9511 24.437 40.8708 24.2845 40.7522 24.1644ZM21.3029 8.43062C20.771 8.46567 20.2374 8.46567 19.7056 8.43062L20.4999 6.49167L21.3029 8.43062ZM19.0137 10.0535C20.0041 10.1683 21.0044 10.1683 21.9947 10.0535L23.6347 13.9827C21.5844 14.5359 19.4241 14.5359 17.3737 13.9827L19.0137 10.0535ZM17.0833 15.674C19.3224 16.2675 21.6775 16.2675 23.9166 15.674V18.7917H17.0833V15.674ZM6.32932 20.5H12.4622L9.04557 23.9167H2.91265L6.32932 20.5ZM6.83328 25.625C9.61786 25.625 9.66911 25.7019 10.0022 25.3773L13.6666 21.7044V39.2917H6.83328V25.625ZM34.1666 39.2917H15.3749V21.7044C19.3127 25.625 19.1589 25.625 19.6458 25.625H34.1666V39.2917ZM19.996 23.9167L16.5793 20.5H34.6706L38.0872 23.9167H19.996Z" fill="white"/>
<path d="M10.8646 2.5625H14.6058C13.2298 3.41896 12.058 4.56626 11.1726 5.92383C10.2872 7.2814 9.70979 8.81633 9.4808 10.4208C9.14171 10.5828 8.86548 10.8521 8.6949 11.1869C8.52433 11.5218 8.46893 11.9035 8.53727 12.273C8.60562 12.6426 8.7939 12.9792 9.07296 13.2309C9.35202 13.4826 9.70629 13.6353 10.0809 13.6652C10.4555 13.6952 10.8295 13.6008 11.145 13.3967C11.4606 13.1926 11.7 12.8901 11.8262 12.5362C11.9524 12.1822 11.9584 11.7965 11.8432 11.4388C11.7281 11.0811 11.4982 10.7713 11.1891 10.5575C11.5443 8.353 12.6729 6.34703 14.3727 4.8991C16.0725 3.45117 18.2325 2.65595 20.4654 2.65595C22.6983 2.65595 24.8582 3.45117 26.5581 4.8991C28.2579 6.34703 29.3865 8.353 29.7416 10.5575C29.4326 10.7713 29.2027 11.0811 29.0875 11.4388C28.9724 11.7965 28.9784 12.1822 29.1046 12.5362C29.2308 12.8901 29.4702 13.1926 29.7857 13.3967C30.1013 13.6008 30.4753 13.6952 30.8499 13.6652C31.2245 13.6353 31.5787 13.4826 31.8578 13.2309C32.1369 12.9792 32.3252 12.6426 32.3935 12.273C32.4618 11.9035 32.4064 11.5218 32.2359 11.1869C32.0653 10.8521 31.7891 10.5828 31.45 10.4208C31.221 8.81633 30.6435 7.2814 29.7582 5.92383C28.8728 4.56626 27.701 3.41896 26.325 2.5625H30.0662C30.2543 2.88818 30.5445 3.14271 30.8919 3.28663C31.2394 3.43054 31.6246 3.45579 31.9878 3.35846C32.3511 3.26112 32.6721 3.04665 32.901 2.7483C33.1299 2.44995 33.254 2.0844 33.254 1.70833C33.254 1.33227 33.1299 0.966717 32.901 0.668366C32.6721 0.370016 32.3511 0.155543 31.9878 0.0582107C31.6246 -0.0391215 31.2394 -0.0138732 30.8919 0.13004C30.5445 0.273953 30.2543 0.528487 30.0662 0.854167H10.8646C10.6765 0.528487 10.3863 0.273953 10.0388 0.13004C9.69141 -0.0138732 9.30619 -0.0391215 8.94294 0.0582107C8.57969 0.155543 8.25871 0.370016 8.02978 0.668366C7.80085 0.966717 7.67676 1.33227 7.67676 1.70833C7.67676 2.0844 7.80085 2.44995 8.02978 2.7483C8.25871 3.04665 8.57969 3.26112 8.94294 3.35846C9.30619 3.45579 9.69141 3.43054 10.0388 3.28663C10.3863 3.14271 10.6765 2.88818 10.8646 2.5625Z" fill="white"/>
</svg>
