<svg width="40" height="40" viewBox="0 0 40 40" fill="none" xmlns="http://www.w3.org/2000/svg">
<path d="M17.5324 1.25687C8.55851 1.25687 1.24707 8.55855 1.24707 17.5325C1.24707 26.5064 8.55851 33.8056 17.5324 33.8056C21.568 33.8056 25.2562 32.3196 28.1033 29.8785L29.5264 31.3017L28.6412 32.1868C28.4065 32.4216 28.2747 32.74 28.2747 33.072C28.2747 33.404 28.4065 33.7224 28.6412 33.9572L32.3947 37.7131C33.2159 38.5348 34.2723 38.9337 35.2532 38.8893C36.2341 38.8467 37.1091 38.4058 37.7547 37.762C38.4002 37.1182 38.8406 36.2463 38.8868 35.2654C38.9331 34.2845 38.5343 33.2262 37.7131 32.4045L33.9548 28.6437C33.8365 28.5254 33.6957 28.4319 33.5407 28.3689C33.3858 28.3059 33.2197 28.2746 33.0525 28.2769C32.7264 28.2814 32.4149 28.413 32.1844 28.6437L31.2968 29.5313L29.8761 28.1106C32.3204 25.2627 33.808 21.571 33.808 17.5325C33.808 8.55855 26.5064 1.25687 17.5324 1.25687ZM17.5324 3.75102C25.1531 3.75102 31.3017 9.91176 31.3017 17.5325C31.3017 25.1531 25.1531 31.3017 17.5324 31.3017C9.91174 31.3017 3.75101 25.1531 3.75101 17.5325C3.75101 9.91176 9.91174 3.75102 17.5324 3.75102ZM20.0266 11.2653C19.8598 11.2615 19.694 11.2911 19.5388 11.3524C19.3836 11.4136 19.2423 11.5052 19.123 11.6219C19.0037 11.7385 18.9089 11.8778 18.8442 12.0315C18.7795 12.1853 18.7462 12.3504 18.7462 12.5172C18.7462 12.6841 18.7795 12.8492 18.8442 13.003C18.9089 13.1567 19.0037 13.296 19.123 13.4126C19.2423 13.5292 19.3836 13.6209 19.5388 13.6821C19.694 13.7433 19.8598 13.773 20.0266 13.7692H22.0244L17.5227 18.2709L15.9064 16.6448C15.418 16.1595 14.6292 16.1595 14.1409 16.6448L9.13056 21.6527C7.87601 22.8352 9.72987 24.6789 10.9058 23.4182L15.0285 19.2955L16.6448 20.9142C17.1332 21.3995 17.922 21.3995 18.4103 20.9142L23.7898 15.542V17.5325C23.7861 17.6992 23.8158 17.865 23.877 18.0201C23.9383 18.1753 24.0299 18.3166 24.1466 18.4358C24.2632 18.5551 24.4024 18.6498 24.5562 18.7145C24.7099 18.7792 24.875 18.8125 25.0418 18.8125C25.2086 18.8125 25.3737 18.7792 25.5274 18.7145C25.6812 18.6498 25.8204 18.5551 25.9371 18.4358C26.0537 18.3166 26.1453 18.1753 26.2066 18.0201C26.2678 17.865 26.2975 17.6992 26.2938 17.5325V12.5221C26.2944 12.3569 26.2623 12.1932 26.1994 12.0404C26.1364 11.8876 26.0439 11.7488 25.9271 11.632C25.8102 11.5152 25.6714 11.4226 25.5186 11.3597C25.3659 11.2967 25.2021 11.2646 25.0369 11.2653H20.0266ZM33.0696 31.2992L35.9427 34.1748C36.3325 34.5647 36.3989 34.8572 36.3853 35.1456C36.3717 35.4338 36.2282 35.7484 35.9868 35.9892C35.7453 36.23 35.4305 36.375 35.1407 36.3878C34.8509 36.402 34.5548 36.3326 34.165 35.9427L31.2968 33.072L33.0696 31.2992Z" fill="white"/>
</svg>
