<svg width="36" height="44" viewBox="0 0 36 44" fill="none" xmlns="http://www.w3.org/2000/svg">
<path d="M34.3293 39.11L30.673 35.4425C31.5337 33.6437 31.7306 31.5984 31.229 29.6685C30.7273 27.7385 29.5593 26.048 27.9316 24.8961C26.3039 23.7441 24.3213 23.2047 22.3343 23.3734C20.3473 23.5421 18.484 24.4079 17.0738 25.8178C15.6636 27.2277 14.7973 29.0908 14.6281 31.0778C14.459 33.0647 14.9978 35.0475 16.1494 36.6755C17.3011 38.3034 18.9912 39.4718 20.9211 39.9739C22.8509 40.476 24.8962 40.2796 26.6952 39.4193L30.3618 43.0756C30.6224 43.3364 30.9317 43.5432 31.2723 43.6844C31.6128 43.8256 31.9778 43.8984 32.3464 43.8985C32.7151 43.8986 33.0801 43.8261 33.4207 43.6852C33.7614 43.5442 34.0709 43.3376 34.3316 43.077C34.5924 42.8164 34.7993 42.5071 34.9405 42.1665C35.0817 41.826 35.1544 41.461 35.1545 41.0924C35.1546 40.7237 35.0822 40.3587 34.9412 40.0181C34.8003 39.6774 34.5936 39.3679 34.333 39.1072L34.3293 39.11ZM18.4218 36.4531C17.5041 35.5353 16.8791 34.366 16.626 33.093C16.3728 31.82 16.5028 30.5005 16.9995 29.3014C17.4962 28.1023 18.3374 27.0775 19.4166 26.3564C20.4957 25.6353 21.7645 25.2505 23.0624 25.2505C24.3603 25.2505 25.6291 25.6353 26.7083 26.3564C27.7875 27.0775 28.6286 28.1023 29.1253 29.3014C29.622 30.5005 29.752 31.82 29.4989 33.093C29.2457 34.366 28.6208 35.5353 27.703 36.4531C26.4715 37.6824 24.8025 38.3727 23.0624 38.3727C21.3224 38.3727 19.6534 37.6824 18.4218 36.4531ZM32.9999 41.75C32.8244 41.9234 32.5876 42.0207 32.3409 42.0207C32.0941 42.0207 31.8573 41.9234 31.6818 41.75L28.3246 38.4003C28.8171 38.0125 29.2621 37.5678 29.6502 37.0756L32.9999 40.4375C33.0868 40.5238 33.1558 40.6265 33.2029 40.7396C33.2499 40.8527 33.2742 40.974 33.2742 41.0965C33.2742 41.219 33.2499 41.3403 33.2029 41.4535C33.1558 41.5666 33.0868 41.6693 32.9999 41.7556V41.75Z" fill="white"/>
<path d="M17.4375 40.25H5.25C4.50408 40.25 3.78871 39.9537 3.26126 39.4262C2.73382 38.8988 2.4375 38.1834 2.4375 37.4375V5.56249C2.4375 4.81657 2.73382 4.1012 3.26126 3.57375C3.78871 3.0463 4.50408 2.74999 5.25 2.74999H21.5438C21.7392 2.75049 21.934 2.77155 22.125 2.8128V8.37499C22.125 9.12091 22.4213 9.83628 22.9488 10.3637C23.4762 10.8912 24.1916 11.1875 24.9375 11.1875H30.4903C30.5366 11.3877 30.5608 11.5923 30.5625 11.7978V24.3125C30.5625 24.5611 30.6613 24.7996 30.8371 24.9754C31.0129 25.1512 31.2514 25.25 31.5 25.25C31.7487 25.25 31.9871 25.1512 32.1629 24.9754C32.3387 24.7996 32.4375 24.5611 32.4375 24.3125V11.7978C32.4388 11.1839 32.3189 10.5759 32.0846 10.0085C31.8504 9.44104 31.5064 8.92544 31.0725 8.49124L24.8663 2.25593C24.4318 1.81679 23.9143 1.46853 23.3438 1.23145C22.7734 0.994357 22.1615 0.873184 21.5438 0.874989H5.25C4.00726 0.876478 2.81584 1.37082 1.93708 2.24957C1.05833 3.12832 0.563989 4.31974 0.5625 5.56249V37.4375C0.563989 38.6802 1.05833 39.8716 1.93708 40.7504C2.81584 41.6292 4.00726 42.1235 5.25 42.125H17.4375C17.6861 42.125 17.9246 42.0262 18.1004 41.8504C18.2762 41.6746 18.375 41.4361 18.375 41.1875C18.375 40.9388 18.2762 40.7004 18.1004 40.5246C17.9246 40.3488 17.6861 40.25 17.4375 40.25ZM29.2444 9.31249H24.9375C24.6889 9.31249 24.4504 9.21371 24.2746 9.0379C24.0988 8.86208 24 8.62363 24 8.37499V4.04374L29.2444 9.31249Z" fill="white"/>
<path d="M7.125 11.1875H17.4375C17.6861 11.1875 17.9246 11.0887 18.1004 10.9129C18.2762 10.7371 18.375 10.4986 18.375 10.25C18.375 10.0014 18.2762 9.7629 18.1004 9.58709C17.9246 9.41127 17.6861 9.3125 17.4375 9.3125H7.125C6.87636 9.3125 6.6379 9.41127 6.46209 9.58709C6.28627 9.7629 6.1875 10.0014 6.1875 10.25C6.1875 10.4986 6.28627 10.7371 6.46209 10.9129C6.6379 11.0887 6.87636 11.1875 7.125 11.1875Z" fill="white"/>
<path d="M25.875 14.9375H9.9375C9.68886 14.9375 9.4504 15.0363 9.27459 15.2121C9.09877 15.3879 9 15.6264 9 15.875C9 16.1236 9.09877 16.3621 9.27459 16.5379C9.4504 16.7137 9.68886 16.8125 9.9375 16.8125H25.875C26.1236 16.8125 26.3621 16.7137 26.5379 16.5379C26.7137 16.3621 26.8125 16.1236 26.8125 15.875C26.8125 15.6264 26.7137 15.3879 26.5379 15.2121C26.3621 15.0363 26.1236 14.9375 25.875 14.9375Z" fill="white"/>
<path d="M26.8125 20.5625C26.8125 20.3138 26.7137 20.0754 26.5379 19.8996C26.3621 19.7237 26.1236 19.625 25.875 19.625H7.125C6.87636 19.625 6.6379 19.7237 6.46209 19.8996C6.28627 20.0754 6.1875 20.3138 6.1875 20.5625C6.1875 20.8111 6.28627 21.0496 6.46209 21.2254C6.6379 21.4012 6.87636 21.5 7.125 21.5H25.875C26.1236 21.5 26.3621 21.4012 26.5379 21.2254C26.7137 21.0496 26.8125 20.8111 26.8125 20.5625Z" fill="white"/>
<path d="M13.6875 25.25C13.6875 25.0014 13.5887 24.7629 13.4129 24.5871C13.2371 24.4113 12.9986 24.3125 12.75 24.3125H7.125C6.87636 24.3125 6.6379 24.4113 6.46209 24.5871C6.28627 24.7629 6.1875 25.0014 6.1875 25.25C6.1875 25.4986 6.28627 25.7371 6.46209 25.9129C6.6379 26.0887 6.87636 26.1875 7.125 26.1875H12.75C12.9986 26.1875 13.2371 26.0887 13.4129 25.9129C13.5887 25.7371 13.6875 25.4986 13.6875 25.25Z" fill="white"/>
<path d="M7.125 30.875H10.875C11.1236 30.875 11.3621 30.7762 11.5379 30.6004C11.7137 30.4246 11.8125 30.1861 11.8125 29.9375C11.8125 29.6889 11.7137 29.4504 11.5379 29.2746C11.3621 29.0988 11.1236 29 10.875 29H7.125C6.87636 29 6.6379 29.0988 6.46209 29.2746C6.28627 29.4504 6.1875 29.6889 6.1875 29.9375C6.1875 30.1861 6.28627 30.4246 6.46209 30.6004C6.6379 30.7762 6.87636 30.875 7.125 30.875Z" fill="white"/>
<path d="M7.125 35.5625H11.8125C12.0611 35.5625 12.2996 35.4637 12.4754 35.2879C12.6512 35.1121 12.75 34.8736 12.75 34.625C12.75 34.3763 12.6512 34.1379 12.4754 33.9621C12.2996 33.7862 12.0611 33.6875 11.8125 33.6875H7.125C6.87636 33.6875 6.6379 33.7862 6.46209 33.9621C6.28627 34.1379 6.1875 34.3763 6.1875 34.625C6.1875 34.8736 6.28627 35.1121 6.46209 35.2879C6.6379 35.4637 6.87636 35.5625 7.125 35.5625Z" fill="white"/>
<path d="M23.0625 34.625C22.3166 34.625 21.6012 34.3287 21.0738 33.8012C20.5463 33.2738 20.25 32.5584 20.25 31.8125C20.25 31.5638 20.1512 31.3254 19.9754 31.1496C19.7996 30.9737 19.5611 30.875 19.3125 30.875C19.0639 30.875 18.8254 30.9737 18.6496 31.1496C18.4738 31.3254 18.375 31.5638 18.375 31.8125C18.3765 33.0552 18.8708 34.2466 19.7496 35.1254C20.6283 36.0041 21.8198 36.4985 23.0625 36.5C23.3111 36.5 23.5496 36.4012 23.7254 36.2254C23.9012 36.0496 24 35.8111 24 35.5625C24 35.3138 23.9012 35.0754 23.7254 34.8996C23.5496 34.7237 23.3111 34.625 23.0625 34.625Z" fill="white"/>
</svg>
