<svg width="54" height="54" viewBox="0 0 54 54" fill="none" xmlns="http://www.w3.org/2000/svg">
<path fill-rule="evenodd" clip-rule="evenodd" d="M14.2002 35.3252C15.2357 35.3252 16.0752 36.1647 16.0752 37.2002V42.3752C16.0752 43.4107 15.2357 44.2502 14.2002 44.2502C13.1647 44.2502 12.3252 43.4107 12.3252 42.3752V37.2002C12.3252 36.1647 13.1647 35.3252 14.2002 35.3252Z" fill="#1351D8"/>
<path fill-rule="evenodd" clip-rule="evenodd" d="M27 30.1499C28.0355 30.1499 28.875 30.9894 28.875 32.0249V42.3749C28.875 43.4104 28.0355 44.2499 27 44.2499C25.9645 44.2499 25.125 43.4104 25.125 42.3749V32.0249C25.125 30.9894 25.9645 30.1499 27 30.1499Z" fill="#1351D8"/>
<path fill-rule="evenodd" clip-rule="evenodd" d="M39.7998 24.9502C40.8353 24.9502 41.6748 25.7897 41.6748 26.8252V42.3752C41.6748 43.4107 40.8353 44.2502 39.7998 44.2502C38.7643 44.2502 37.9248 43.4107 37.9248 42.3752V26.8252C37.9248 25.7897 38.7643 24.9502 39.7998 24.9502Z" fill="#1351D8"/>
<path fill-rule="evenodd" clip-rule="evenodd" d="M41.0156 10.1977C41.8039 10.8692 41.8985 12.0526 41.227 12.8409L40.0743 14.1941C33.445 21.9413 24.5551 27.4253 14.6533 29.8943C13.6486 30.1448 12.6309 29.5334 12.3804 28.5286C12.1299 27.5239 12.7413 26.5062 13.7461 26.2557C22.8937 23.9748 31.1034 18.9094 37.2239 11.7573C37.2243 11.7568 37.2235 11.7577 37.2239 11.7573L38.3724 10.4091C39.0439 9.62083 40.2273 9.52623 41.0156 10.1977Z" fill="#1351D8"/>
<path fill-rule="evenodd" clip-rule="evenodd" d="M30.5996 11.625C30.5996 10.5895 31.4391 9.75 32.4746 9.75H39.7996C40.8351 9.75 41.6746 10.5895 41.6746 11.625V18.925C41.6746 19.9605 40.8351 20.8 39.7996 20.8C38.7641 20.8 37.9246 19.9605 37.9246 18.925V13.5H32.4746C31.4391 13.5 30.5996 12.6605 30.5996 11.625Z" fill="#1351D8"/>
<path fill-rule="evenodd" clip-rule="evenodd" d="M4.73667 4.73667C8.0728 1.4005 13.0651 0.125 19.5 0.125H34.5C40.9349 0.125 45.9272 1.4005 49.2633 4.73667C52.5995 8.0728 53.875 13.0651 53.875 19.5V34.5C53.875 40.9349 52.5995 45.9272 49.2633 49.2633C45.9272 52.5995 40.9349 53.875 34.5 53.875H19.5C13.0651 53.875 8.0728 52.5995 4.73667 49.2633C1.4005 45.9272 0.125 40.9349 0.125 34.5V29.425C0.125 28.3895 0.96447 27.55 2 27.55C3.03553 27.55 3.875 28.3895 3.875 29.425V34.5C3.875 40.5651 5.0995 44.3228 7.3883 46.6117C9.6772 48.9005 13.4349 50.125 19.5 50.125H34.5C40.5651 50.125 44.3228 48.9005 46.6117 46.6117C48.9005 44.3228 50.125 40.5651 50.125 34.5V19.5C50.125 13.4349 48.9005 9.6772 46.6117 7.3883C44.3228 5.0995 40.5651 3.875 34.5 3.875H19.5C13.4349 3.875 9.6772 5.0995 7.3883 7.3883C5.0995 9.6772 3.875 13.4349 3.875 19.5C3.875 20.5355 3.03553 21.375 2 21.375C0.96447 21.375 0.125 20.5355 0.125 19.5C0.125 13.0651 1.4005 8.0728 4.73667 4.73667Z" fill="#1351D8"/>
</svg>
