<svg width="53" height="48" viewBox="0 0 53 48" fill="none" xmlns="http://www.w3.org/2000/svg">
<path d="M45.4583 11.6356H42.0729V8.25016C42.0729 4.14162 38.7335 0.802246 34.625 0.802246H7.54167C3.43313 0.802246 0.09375 4.14162 0.09375 8.25016V32.8418C0.09375 34.0822 0.770833 35.2224 1.85958 35.8156C2.36875 36.0918 2.92396 36.2272 3.47917 36.2272C4.12104 36.2272 4.76292 36.0458 5.32354 35.6801L10.2419 32.4924C10.4558 32.3543 10.6915 32.2622 10.9271 32.1756V35.3335C10.9271 39.442 14.2665 42.7814 18.375 42.7814H39.3158C41.0194 42.7814 42.6742 43.2716 44.1069 44.1951L47.6765 46.5108C48.2371 46.8764 48.8762 47.0578 49.5208 47.0578C50.076 47.0578 50.6312 46.9197 51.1404 46.6462C52.2292 46.053 52.9062 44.9128 52.9062 43.6724V19.0808C52.9062 14.9722 49.5669 11.6356 45.4583 11.6356ZM8.02917 29.0854L4.15625 31.596V8.25016C4.15625 6.38412 5.67562 4.86474 7.54167 4.86474H34.625C36.491 4.86474 38.0104 6.38412 38.0104 8.25016V24.5001C38.0104 26.3662 36.491 27.8856 34.625 27.8856H12.0808C10.6373 27.8856 9.23437 28.2999 8.02917 29.0854ZM48.8438 42.4266L46.3142 40.7881C44.226 39.4366 41.8048 38.7189 39.3158 38.7189H18.375C16.509 38.7189 14.9896 37.1995 14.9896 35.3335V31.9481H34.625C38.7335 31.9481 42.0729 28.6087 42.0729 24.5001V15.6981H45.4583C47.3244 15.6981 48.8438 17.2174 48.8438 19.0835V42.4266Z" fill="#1351D8"/>
</svg>
