<svg width="40" height="40" viewBox="0 0 40 40" fill="none" xmlns="http://www.w3.org/2000/svg">
<g clip-path="url(#clip0_2659_640)">
<path d="M20 27.15L17.85 22.15L12.65 19.85L17.85 17.6L20 12.85L22.15 17.6L27.35 19.85L22.15 22.15L20 27.15ZM6 40C4.33334 40 2.91666 39.4166 1.75 38.25C0.583334 37.0834 0 35.6666 0 34C0 32.6 0.425 31.3666 1.275 30.3C2.125 29.2334 3.2 28.5334 4.5 28.2V11.8C3.2 11.4667 2.125 10.7667 1.275 9.7C0.425 8.63334 0 7.4 0 6C0 4.33334 0.583334 2.91666 1.75 1.75C2.91666 0.583334 4.33334 0 6 0C7.4 0 8.63334 0.425 9.7 1.275C10.7667 2.125 11.4667 3.2 11.8 4.5H28.2C28.5334 3.2 29.2334 2.125 30.3 1.275C31.3666 0.425 31.85 0.75 33.25 0.75C34.9166 0.75 36.3334 1.33334 37.5 2.5C38.6666 3.66666 39.375 4.33334 39.375 6C39.375 7.4 39.575 8.63334 38.725 9.7C37.875 10.7667 36.8 11.4667 35.5 11.8V28.2C36.8 28.5334 37.875 29.2334 38.725 30.3C39.575 31.3666 40 32.6 40 34C40 35.6666 39.4166 37.0834 38.25 38.25C37.0834 39.4166 35.6666 40 34 40C32.6 40 31.3666 39.575 30.3 38.725C29.2334 37.875 28.5334 36.8 28.2 35.5H11.8C11.4667 36.8 10.7667 37.875 9.7 38.725C8.63334 39.575 7.4 40 6 40ZM6 9C6.83334 9 7.54166 8.70834 8.125 8.125C8.70834 7.54166 9 6.83334 9 6C9 5.16666 8.70834 4.45834 8.125 3.875C7.54166 3.29166 6.83334 3 6 3C5.16666 3 4.45834 3.29166 3.875 3.875C3.29166 4.45834 3 5.16666 3 6C3 6.83334 3.29166 7.54166 3.875 8.125C4.45834 8.70834 5.16666 9 6 9ZM34 9C34.8334 9 35.5416 8.70834 36.125 8.125C36.7084 7.54166 37 6.83334 37 6C37 5.16666 36.7084 4.45834 36.125 3.875C35.5416 3.29166 34.8334 3 34 3C33.1666 3 32.4584 3.29166 31.875 3.875C31.2916 4.45834 31 5.16666 31 6C31 6.83334 31.2916 7.54166 31.875 8.125C32.4584 8.70834 33.1666 9 34 9ZM11.8 32.5H28.2C28.4666 31.4334 28.9834 30.5166 29.75 29.75C30.5166 28.9834 31.4334 28.4666 32.5 28.2V11.8C31.4334 11.5333 30.5166 11.0167 29.75 10.25C28.9834 9.48334 28.4666 8.56666 28.2 7.5H11.8C11.5333 8.56666 11.0167 9.48334 10.25 10.25C9.48334 11.0167 8.56666 11.5333 7.5 11.8V28.2C8.56666 28.4666 9.48334 28.9834 10.25 29.75C11.0167 30.5166 11.5333 31.4334 11.8 32.5ZM34 37C34.8334 37 35.5416 36.7084 36.125 36.125C36.7084 35.5416 37 34.8334 37 34C37 33.1666 36.7084 32.4584 36.125 31.875C35.5416 31.2916 34.8334 31 34 31C33.1666 31 32.4584 31.2916 31.875 31.875C31.2916 32.4584 31 33.1666 31 34C31 34.8334 31.2916 35.5416 31.875 36.125C32.4584 36.7084 33.1666 37 34 37ZM6 37C6.83334 37 7.54166 36.7084 8.125 36.125C8.70834 35.5416 9 34.8334 9 34C9 33.1666 8.70834 32.4584 8.125 31.875C7.54166 31.2916 6.83334 31 6 31C5.16666 31 4.45834 31.2916 3.875 31.875C3.29166 32.4584 3 33.1666 3 34C3 34.8334 3.29166 35.5416 3.875 36.125C4.45834 36.7084 5.16666 37 6 37Z" fill="#30E87A"/>
<path d="M33.75 10.9375C36.3388 10.9375 38.4375 8.83883 38.4375 6.25C38.4375 3.66117 36.3388 1.5625 33.75 1.5625C31.1612 1.5625 29.0625 3.66117 29.0625 6.25C29.0625 8.83883 31.1612 10.9375 33.75 10.9375Z" fill="white" stroke="#30E87A" stroke-width="2.5"/>
<path d="M19.9984 27.1501L17.8484 22.1501L12.6484 19.8501L17.8484 17.6001L19.9984 12.8501L22.1484 17.6001L27.3484 19.8501L22.1484 22.1501L19.9984 27.1501Z" fill="#30E87A"/>
</g>
<defs>
<clipPath id="clip0_2659_640">
<rect width="40" height="40" fill="white"/>
</clipPath>
</defs>
</svg>
