<svg width="20" height="22" viewBox="0 0 20 22" fill="none" xmlns="http://www.w3.org/2000/svg">
<path d="M19.2201 5.66464C19.2088 5.07067 19.198 4.50955 19.198 3.96672C19.198 3.54144 18.8533 3.19666 18.428 3.19666C15.1347 3.19666 12.6273 2.25021 10.5372 0.21808C10.2383 -0.0726937 9.76246 -0.072591 9.46358 0.21808C7.37375 2.25021 4.86675 3.19666 1.57368 3.19666C1.1484 3.19666 0.803623 3.54144 0.803623 3.96672C0.803623 4.50966 0.792945 5.07098 0.781548 5.66505C0.675999 11.1926 0.531434 18.7629 9.74819 21.9576C9.82992 21.9859 9.91514 22.0001 10.0004 22.0001C10.0856 22.0001 10.1709 21.9859 10.2525 21.9576C19.47 18.7628 19.3256 11.1923 19.2201 5.66464ZM10.0005 20.4129C2.09588 17.5414 2.21539 11.251 2.32146 5.69441C2.32782 5.36093 2.33398 5.03771 2.33829 4.72086C5.42263 4.59067 7.88907 3.65602 10.0005 1.81672C12.1121 3.65602 14.5789 4.59077 17.6634 4.72086C17.6678 5.03761 17.6739 5.36062 17.6803 5.6939C17.7862 11.2507 17.9057 17.5413 10.0005 20.4129Z" fill="#30E87A"/>
<path d="M12.6524 8.32503L8.93568 12.0415L7.34967 10.4555C7.04894 10.1549 6.56134 10.1549 6.26071 10.4555C5.95997 10.7564 5.95997 11.2439 6.26071 11.5446L8.3912 13.6751C8.54151 13.8254 8.73865 13.9005 8.93568 13.9005C9.13271 13.9005 9.32984 13.8254 9.48016 13.6751L13.7412 9.4141C14.0421 9.11336 14.0421 8.62576 13.7413 8.32513C13.4407 8.0244 12.9531 8.0243 12.6524 8.32503Z" fill="#30E87A"/>
</svg>
