<svg width="26" height="26" viewBox="0 0 26 26" fill="none" xmlns="http://www.w3.org/2000/svg">
<path d="M23.6848 12.6982L23.0274 12.442C22.9698 12.299 22.9122 12.156 22.8546 12.013L23.1406 11.3835C23.1982 11.2683 23.1704 11.1551 23.083 11.0697L22.3403 10.3249C22.2549 10.2396 22.1397 10.2117 22.0265 10.2693L21.3691 10.5533C21.2261 10.4977 21.0832 10.4123 20.9402 10.3825L20.682 9.72517C20.6542 9.61 20.539 9.55438 20.4258 9.55438H19.3673C19.2541 9.55438 19.1389 9.63979 19.1111 9.72517L18.8529 10.3825C18.7099 10.4401 18.5669 10.4977 18.4239 10.5533L17.7666 10.2693C17.6534 10.2117 17.5382 10.2396 17.4528 10.3249L16.71 11.0697C16.6227 11.1551 16.5948 11.2683 16.6524 11.3835L16.9384 12.013C16.8808 12.156 16.8233 12.299 16.7657 12.442L16.1083 12.6982C15.9951 12.726 15.9375 12.8412 15.9375 12.9563V14.0129C15.9375 14.1281 16.0229 14.2413 16.1083 14.2711L16.7657 14.5273C16.8233 14.6702 16.8808 14.8132 16.9384 14.9562L16.6524 15.5858C16.5948 15.699 16.6227 15.8142 16.71 15.8996L17.4528 16.6423C17.5382 16.7297 17.6534 16.7575 17.7666 16.6999L18.4239 16.4139C18.5669 16.4715 18.7099 16.5569 18.8529 16.5867L19.1111 17.2441C19.1667 17.3573 19.2541 17.4148 19.3673 17.4148H20.4258C20.539 17.4148 20.6542 17.3295 20.682 17.2441L20.9402 16.5867C21.0832 16.5291 21.2261 16.4715 21.3691 16.4139L22.0265 16.6999C22.1397 16.7575 22.2549 16.7297 22.3403 16.6423L23.083 15.8996C23.1704 15.8142 23.1982 15.699 23.1406 15.5858L22.8546 14.986C22.9122 14.843 22.9698 14.7 23.0274 14.557L23.6848 14.2989C23.798 14.2413 23.8556 14.1559 23.8556 14.0427V12.9842C23.8556 12.869 23.798 12.7558 23.6848 12.6982ZM19.8816 15.129C18.9681 15.129 18.2531 14.3842 18.2531 13.4985C18.2531 12.6128 18.9681 11.87 19.8816 11.87C20.7674 11.87 21.5121 12.583 21.5121 13.4985C21.5121 14.4141 20.7972 15.129 19.8816 15.129Z" fill="#30E87A"/>
<path d="M15.2508 17.4998L14.1 17.032C13.9924 16.7443 13.8823 16.4566 13.7397 16.2039L14.2426 15.0507C14.3151 14.9081 14.2801 14.763 14.1726 14.6554L12.9117 13.3946C12.8041 13.287 12.659 13.2495 12.5139 13.322L11.3256 13.7898C11.0755 13.6472 10.7878 13.5397 10.4976 13.4671L10.0298 12.3139C9.99475 12.1713 9.84967 12.0987 9.70706 12.0987H7.90587C7.76076 12.0987 7.61817 12.2063 7.58064 12.3139L7.11283 13.4671C6.82513 13.5397 6.57246 13.6823 6.2848 13.7898L5.13401 13.287C4.98892 13.2144 4.84634 13.2495 4.73625 13.3595L3.47794 14.6179C3.36785 14.7279 3.33282 14.8706 3.40538 15.0156L3.87316 16.2039C3.7281 16.4566 3.62052 16.7443 3.51293 17.032L2.35967 17.4998C2.21709 17.5723 2.14453 17.6799 2.14453 17.8225V19.6237C2.14453 19.7688 2.25209 19.9114 2.35967 19.9489L3.51293 20.4167C3.62052 20.7044 3.7281 20.9921 3.87316 21.2448L3.36785 22.3981C3.29779 22.5406 3.33282 22.6858 3.44038 22.7933L4.70122 24.0892C4.80881 24.1968 4.9539 24.2343 5.09651 24.1617L6.24974 23.6564C6.50241 23.8015 6.79014 23.909 7.07781 23.9816L7.54565 25.1324C7.61817 25.2775 7.72576 25.35 7.87084 25.35H9.66956C9.81461 25.35 9.95722 25.2424 9.99475 25.1324L10.4626 23.9816C10.7503 23.874 11.0029 23.764 11.2906 23.6214L12.4439 24.1242C12.5865 24.1968 12.7316 24.1617 12.8391 24.0542L14.1 22.7558C14.2075 22.6482 14.2426 22.5056 14.1726 22.3605L13.7397 21.2448C13.8823 20.9921 13.9924 20.7044 14.1 20.4167L15.2508 19.9489C15.3958 19.9114 15.4684 19.7688 15.4684 19.6237V17.8225C15.4684 17.6799 15.3958 17.5348 15.2508 17.4998ZM8.80646 21.3874C7.33048 21.3874 6.14219 20.1991 6.14219 18.7231C6.14219 17.2471 7.33048 16.0588 8.80646 16.0588C10.2825 16.0588 11.4707 17.2471 11.4707 18.7231C11.4707 20.1991 10.2825 21.3874 8.80646 21.3874Z" fill="#30E87A"/>
<path d="M6.73858 6.91664L7.60414 7.23934C7.6742 7.45701 7.74675 7.63712 7.85431 7.81724L7.49659 8.6803C7.42403 8.82541 7.45906 8.96803 7.56664 9.07558L8.53976 10.0487C8.64735 10.1563 8.79243 10.1938 8.93505 10.1213L9.80061 9.76103C9.98072 9.86859 10.1608 9.94115 10.376 10.0137L10.7362 10.8768C10.8088 11.0219 10.9163 11.0919 11.0615 11.0919H12.4649C12.6075 11.0919 12.7526 10.9844 12.7876 10.8768L13.1478 10.0137C13.328 9.94115 13.5456 9.86859 13.7257 9.76103L14.5888 10.1213C14.7339 10.1938 14.8765 10.1563 14.9841 10.0487L15.9572 9.07558C16.0648 8.96803 16.1023 8.82541 16.0298 8.6803L15.6695 7.81724C15.7771 7.63712 15.8496 7.45701 15.9222 7.23934L16.7853 6.91664C16.9304 6.84409 17.0029 6.7365 17.0029 6.59145V5.18799C17.0029 5.0429 16.9304 4.90032 16.7853 4.86276L15.9222 4.50253C15.8496 4.28739 15.7771 4.10728 15.6695 3.92714L16.0298 3.06408C16.1023 2.91899 16.0648 2.7739 15.9572 2.66632L14.9841 1.69567C14.8765 1.58561 14.7339 1.55056 14.5888 1.62311L13.7257 1.98334C13.5456 1.87578 13.3655 1.80323 13.1478 1.7307L12.7876 0.867607C12.7176 0.722521 12.6075 0.649994 12.4649 0.649994H11.0615C10.9163 0.649994 10.7713 0.757548 10.7362 0.867607L10.376 1.7307C10.1959 1.80323 9.98072 1.87578 9.80061 1.98334L8.93505 1.62311C8.79243 1.55056 8.64735 1.58561 8.53976 1.69567L7.56664 2.66632C7.45906 2.7739 7.42403 2.91899 7.49659 3.06408L7.85431 3.92714C7.74675 4.10728 7.6742 4.28739 7.60414 4.50253L6.73858 4.86276C6.59596 4.93531 6.52344 5.0429 6.52344 5.18799V6.59145C6.52344 6.699 6.63102 6.84409 6.73858 6.91664ZM11.7444 3.74702C12.9327 3.74702 13.8683 4.72018 13.8683 5.87093C13.8683 7.05923 12.8977 7.99735 11.7444 7.99735C10.5561 7.99735 9.6205 7.02423 9.6205 5.87093C9.6205 4.68264 10.5561 3.74702 11.7444 3.74702Z" fill="#30E87A"/>
</svg>
