<svg width="41" height="45" viewBox="0 0 41 45" fill="none" xmlns="http://www.w3.org/2000/svg">
<path d="M40.8011 33.6193C40.5543 31.0499 38.2608 29.0322 35.5898 29.0322C35.2704 29.0322 35.0163 28.7781 35.0163 28.4588V19.9088C35.0163 13.5579 30.9519 8.02008 25.3558 5.95155C25.4211 5.62489 25.4574 5.29109 25.4574 4.95716C25.4575 2.22101 23.2366 0 20.5002 0C17.7638 0 15.5429 2.22101 15.5429 4.95728C15.5429 5.28393 15.5792 5.61047 15.6372 5.92258C13.7139 6.60486 11.9357 7.68628 10.4188 9.1524C7.5591 11.9105 5.98412 15.6193 5.98412 19.5968V28.4589C5.98412 28.771 5.73007 29.0323 5.41069 29.0323C2.73248 29.0323 0.446132 31.0501 0.199353 33.6194C0.0614181 35.0493 0.533281 36.4718 1.49858 37.5315C2.45661 38.584 3.82844 39.1936 5.25821 39.1936H14.0115C14.3744 42.4526 17.147 45.0001 20.5002 45.0001C23.8534 45.0001 26.6261 42.4526 26.989 39.1936H35.7422C37.1721 39.1936 38.5438 38.584 39.5019 37.5315C40.4599 36.4717 40.939 35.0492 40.8011 33.6193ZM20.5002 2.90317C21.6324 2.90317 22.5542 3.82496 22.5542 4.95716C22.5542 5.05146 22.5397 5.13861 22.5251 5.23291C22.0316 5.1603 21.5307 5.10952 21.0299 5.09497C20.1662 5.06588 19.317 5.12406 18.4751 5.24018C18.4605 5.14588 18.446 5.05873 18.446 4.96443C18.4462 3.82496 19.368 2.90317 20.5002 2.90317ZM20.5002 42.0967C18.7511 42.0967 17.2849 40.8483 16.9437 39.1935H24.0566C23.7156 40.8484 22.2495 42.0967 20.5002 42.0967ZM37.3535 35.579C36.9325 36.0363 36.3663 36.2902 35.7421 36.2902H5.25833C4.63411 36.2902 4.06807 36.0362 3.64699 35.579C3.22604 35.1218 3.03004 34.5193 3.09537 33.8952C3.19695 32.7992 4.22043 31.9355 5.41796 31.9355C7.33414 31.9355 8.89457 30.3751 8.89457 28.4589V19.5968C8.89457 16.4177 10.1574 13.4492 12.4438 11.2428C14.6212 9.13071 17.4664 7.98384 20.5002 7.98384C20.6454 7.98384 20.7832 7.98384 20.9284 7.99111C27.0905 8.2088 32.1131 13.5581 32.1131 19.9089V28.4589C32.1131 30.3751 33.6736 31.9355 35.5898 31.9355C36.7873 31.9355 37.8108 32.7992 37.9123 33.8952C37.9704 34.5193 37.7744 35.1145 37.3535 35.579Z" fill="#0C848C"/>
<path d="M1.7016 17.4194C2.36933 17.4194 2.97174 16.9549 3.11694 16.2799C3.82092 13.0936 5.41044 10.1905 7.73302 7.88242C8.29919 7.31626 8.29919 6.39447 7.73302 5.82843C7.16686 5.26227 6.24508 5.26227 5.67904 5.82843C2.96458 8.52821 1.0992 11.9323 0.279103 15.6629C0.104927 16.4467 0.598486 17.2233 1.38234 17.3903C1.49845 17.4121 1.60003 17.4194 1.7016 17.4194Z" fill="#0C848C"/>
<path d="M39.2992 17.4194C39.4008 17.4194 39.5097 17.4048 39.6113 17.3831C40.3952 17.2089 40.8887 16.4395 40.7146 15.6557C39.8943 11.925 38.0291 8.52828 35.3145 5.82098C34.7483 5.25482 33.8266 5.25482 33.2605 5.82098C32.6945 6.38715 32.6944 7.30893 33.2605 7.87497C35.5758 10.183 37.1726 13.0863 37.8766 16.2725C38.0291 16.9548 38.6315 17.4194 39.2992 17.4194Z" fill="#0C848C"/>
</svg>
