<svg width="46" height="46" viewBox="0 0 46 46" fill="none" xmlns="http://www.w3.org/2000/svg">
<path d="M43.1032 17.3021C42.9021 17.3431 42.711 17.4233 42.5409 17.5382C42.3708 17.6531 42.225 17.8003 42.1119 17.9715C41.9987 18.1427 41.9203 18.3346 41.8813 18.5361C41.8423 18.7376 41.8434 18.9448 41.8844 19.1459C42.6802 23.0427 42.251 27.0902 40.6555 30.7334C39.0601 34.3766 36.3766 37.437 32.9731 39.4948C29.5697 41.5526 25.6129 42.5071 21.6455 42.2273C17.6782 41.9475 13.8945 40.4472 10.8135 37.9321C7.73253 35.417 5.5051 32.0103 4.43672 28.1793C3.36835 24.3483 3.51136 20.2805 4.84615 16.534C6.18093 12.7874 8.64211 9.5456 11.8921 7.25308C15.1421 4.96057 19.0218 3.72967 22.999 3.72921C24.9593 3.72733 26.9084 4.02594 28.7782 4.61463C29.1707 4.73063 29.5931 4.68797 29.9545 4.49582C30.3159 4.30367 30.5875 3.97738 30.7109 3.5871C30.8342 3.19683 30.7995 2.77372 30.6142 2.40877C30.4289 2.04381 30.1078 1.76614 29.7199 1.63546C25.0401 0.168884 20.008 0.281337 15.3984 1.9555C10.7889 3.62967 6.85745 6.77271 4.20958 10.9006C1.56171 15.0286 0.34422 19.9125 0.744591 24.8003C1.14496 29.6881 3.14099 34.3088 6.42531 37.9508C9.70963 41.5928 14.1001 44.0541 18.9207 44.9559C23.7413 45.8576 28.7246 45.1497 33.1033 42.9411C37.482 40.7325 41.0133 37.1458 43.1534 32.7332C45.2935 28.3206 45.9237 23.3268 44.9469 18.5209C44.9059 18.3198 44.8257 18.1287 44.7109 17.9586C44.596 17.7885 44.4488 17.6427 44.2776 17.5295C44.1063 17.4164 43.9145 17.338 43.713 17.299C43.5115 17.26 43.3043 17.261 43.1032 17.3021ZM36.6032 7.43755L38.1032 5.93963V12.5834C38.1032 12.9978 38.2678 13.3952 38.5608 13.6882C38.8539 13.9813 39.2513 14.1459 39.6657 14.1459C40.0801 14.1459 40.4775 13.9813 40.7706 13.6882C41.0636 13.3952 41.2282 12.9978 41.2282 12.5834V5.93963L42.7282 7.43755C43.0244 7.71355 43.4162 7.8638 43.821 7.85666C44.2257 7.84952 44.612 7.68553 44.8982 7.39926C45.1845 7.11298 45.3485 6.72676 45.3556 6.32197C45.3628 5.91717 45.2125 5.52541 44.9365 5.22921L40.7699 1.06254C40.4766 0.770448 40.0796 0.606445 39.6657 0.606445C39.2518 0.606445 38.8548 0.770448 38.5615 1.06254L34.3949 5.22921C34.1189 5.52541 33.9686 5.91717 33.9758 6.32197C33.9829 6.72676 34.1469 7.11298 34.4332 7.39926C34.7194 7.68553 35.1057 7.84952 35.5104 7.85666C35.9152 7.8638 36.307 7.71355 36.6032 7.43755ZM22.9532 34.9792C23.3676 34.9792 23.765 34.8146 24.0581 34.5216C24.3511 34.2285 24.5157 33.8311 24.5157 33.4167V32.5834C25.767 32.4031 26.9167 31.7936 27.7682 30.8592C28.6197 29.9247 29.1199 28.7235 29.1834 27.4609C29.2469 26.1983 28.8697 24.9529 28.1163 23.9377C27.3629 22.9226 26.2801 22.2008 25.0532 21.8959L21.7032 21.0625C21.1917 20.9346 20.7386 20.6372 20.4178 20.2188C20.0997 19.8114 19.9286 19.3085 19.9324 18.7917C19.9346 18.173 20.1817 17.5804 20.6198 17.1435C21.0579 16.7066 21.6512 16.461 22.2699 16.4605H23.7282C24.304 16.4615 24.8592 16.6745 25.288 17.0587C25.7169 17.4429 25.9892 17.9716 26.0532 18.5438C26.0703 18.7522 26.129 18.9551 26.2259 19.1404C26.3228 19.3257 26.456 19.4897 26.6174 19.6226C26.7789 19.7555 26.9654 19.8546 27.1658 19.9142C27.3663 19.9737 27.5767 19.9923 27.7845 19.969C27.9923 19.9457 28.1934 19.881 28.3757 19.7786C28.558 19.6761 28.7179 19.5382 28.846 19.3728C28.974 19.2075 29.0675 19.0181 29.121 18.8159C29.1745 18.6138 29.1869 18.4029 29.1574 18.1959C29.0234 16.996 28.495 15.8745 27.6549 15.0073C26.8149 14.1401 25.7107 13.5762 24.5157 13.4042V12.5834C24.5157 12.169 24.3511 11.7715 24.0581 11.4785C23.765 11.1855 23.3676 11.0209 22.9532 11.0209C22.5388 11.0209 22.1414 11.1855 21.8483 11.4785C21.5553 11.7715 21.3907 12.169 21.3907 12.5834V13.4167C20.1514 13.6183 19.0196 14.2414 18.1864 15.1807C17.3531 16.12 16.8695 17.318 16.8171 18.5725C16.7647 19.827 17.1468 21.0612 17.8988 22.0667C18.6508 23.0722 19.7267 23.7875 20.9449 24.0917L24.2949 24.925C24.8478 25.0643 25.3309 25.4007 25.6533 25.8711C25.9757 26.3414 26.1152 26.9134 26.0456 27.4793C25.976 28.0453 25.7021 28.5664 25.2754 28.9446C24.8486 29.3229 24.2984 29.5322 23.7282 29.5334H22.2699C21.6941 29.5323 21.1388 29.3194 20.71 28.9351C20.2812 28.5509 20.0088 28.0223 19.9449 27.45C19.9278 27.2416 19.8691 27.0387 19.7721 26.8534C19.6752 26.6681 19.5421 26.5042 19.3806 26.3713C19.2192 26.2383 19.0327 26.1392 18.8322 26.0797C18.6317 26.0202 18.4214 26.0015 18.2135 26.0248C18.0057 26.0481 17.8047 26.1129 17.6224 26.2153C17.44 26.3177 17.2801 26.4557 17.1521 26.621C17.0241 26.7864 16.9305 26.9758 16.8771 27.1779C16.8236 27.3801 16.8112 27.5909 16.8407 27.798C16.972 28.9832 17.4879 30.0929 18.3096 30.9571C19.1313 31.8213 20.2135 32.3926 21.3907 32.5834V33.4167C21.3907 33.8311 21.5553 34.2285 21.8483 34.5216C22.1414 34.8146 22.5388 34.9792 22.9532 34.9792Z" fill="#0C848C"/>
</svg>
