<svg width="42" height="48" viewBox="0 0 42 48" fill="none" xmlns="http://www.w3.org/2000/svg">
<path d="M41.8555 35.3261C41.6013 32.675 39.2386 30.5932 36.4869 30.5932C36.1579 30.5932 35.8962 30.331 35.8962 30.0015V21.1797C35.8962 14.6271 31.7091 8.91318 25.9443 6.7789C26.0116 6.44186 26.0489 6.09745 26.0489 5.7529C26.049 2.92979 23.7611 0.638184 20.9422 0.638184C18.1232 0.638184 15.8353 2.92979 15.8353 5.75303C15.8353 6.09007 15.8727 6.42698 15.9325 6.74901C13.9511 7.45298 12.1192 8.56876 10.5566 10.0815C7.61063 12.9272 5.98814 16.754 5.98814 20.8578V30.0016C5.98814 30.3236 5.72642 30.5933 5.3974 30.5933C2.63839 30.5933 0.283069 32.6752 0.028845 35.3262C-0.113251 36.8015 0.372847 38.2692 1.36727 39.3626C2.3542 40.4485 3.76742 41.0776 5.24032 41.0776H14.2577C14.6315 44.4401 17.4878 47.0686 20.9422 47.0686C24.3966 47.0686 27.2528 44.4401 27.6267 41.0776H36.644C38.1171 41.0776 39.5302 40.4485 40.5171 39.3626C41.504 38.2691 41.9976 36.8014 41.8555 35.3261ZM20.9422 3.63363C22.1085 3.63363 23.0581 4.58471 23.0581 5.7529C23.0581 5.8502 23.0431 5.94012 23.0282 6.03742C22.5197 5.96251 22.0038 5.91011 21.4878 5.8951C20.598 5.86508 19.7232 5.92511 18.8559 6.04492C18.841 5.94762 18.826 5.8577 18.826 5.76041C18.8262 4.58471 19.7758 3.63363 20.9422 3.63363ZM20.9422 44.0729C19.1403 44.0729 17.6299 42.7848 17.2784 41.0775H24.6058C24.2546 42.7849 22.7442 44.0729 20.9422 44.0729ZM38.3039 37.348C37.8702 37.8199 37.287 38.0819 36.6439 38.0819H5.24045C4.59739 38.0819 4.01428 37.8198 3.5805 37.348C3.14684 36.8763 2.94493 36.2546 3.01224 35.6107C3.11687 34.4799 4.17123 33.5887 5.40489 33.5887C7.37888 33.5887 8.98639 31.9787 8.98639 30.0016V20.8578C8.98639 17.5777 10.2874 14.5149 12.6427 12.2383C14.8857 10.0591 17.8168 8.87579 20.9422 8.87579C21.0918 8.87579 21.2337 8.87579 21.3833 8.88329C27.7313 9.1079 32.9055 14.6272 32.9055 21.1799V30.0016C32.9055 31.9787 34.513 33.5887 36.4869 33.5887C37.7206 33.5887 38.775 34.4799 38.8796 35.6107C38.9394 36.2546 38.7375 36.8688 38.3039 37.348Z" fill="#256BFE"/>
<path d="M1.57641 18.6113C2.26429 18.6113 2.88487 18.132 3.03445 17.4356C3.75967 14.148 5.39714 11.1525 7.7898 8.77114C8.37304 8.18698 8.37304 7.2359 7.7898 6.65186C7.20656 6.06771 6.25696 6.06771 5.67384 6.65186C2.8775 9.43746 0.955833 12.9498 0.110999 16.7989C-0.0684319 17.6077 0.440017 18.4089 1.24752 18.5813C1.36714 18.6038 1.47177 18.6113 1.57641 18.6113Z" fill="#256BFE"/>
<path d="M40.3083 18.6112C40.413 18.6112 40.5252 18.5962 40.6298 18.5738C41.4373 18.3941 41.9458 17.6002 41.7664 16.7915C40.9214 12.9422 38.9999 9.43752 36.2034 6.64417C35.6202 6.06002 34.6706 6.06002 34.0874 6.64417C33.5043 7.22833 33.5042 8.17941 34.0874 8.76345C36.4726 11.1448 38.1176 14.1404 38.8428 17.4279C38.9999 18.1319 39.6204 18.6112 40.3083 18.6112Z" fill="#256BFE"/>
</svg>
