<svg width="47" height="48" viewBox="0 0 47 48" fill="none" xmlns="http://www.w3.org/2000/svg">
<path fill-rule="evenodd" clip-rule="evenodd" d="M37.2538 28.4086C32.3217 28.4086 28.3234 32.4132 28.3234 37.3532C28.3234 42.2931 32.3217 46.2976 37.2538 46.2976C42.1861 46.2976 46.1843 42.2931 46.1843 37.3532C46.1843 32.4132 42.1861 28.4086 37.2538 28.4086ZM42.4661 35.1077L36.1515 41.4321C35.5791 42.0055 34.6331 41.9154 34.1737 41.2564L31.5168 37.9079C31.073 37.3484 31.1656 36.5343 31.7242 36.0895C32.2829 35.6447 33.0956 35.7376 33.5399 36.2972L35.3452 38.5726L40.6354 33.2741C41.1408 32.7678 41.9607 32.7678 42.4661 33.2741C42.9715 33.7804 42.9715 34.6014 42.4661 35.1077ZM4.14154 8.3432L6.78746 8.13046C2.82587 12.4215 0.641724 18.0081 0.641724 23.8533C0.641724 28.5826 2.07111 33.172 4.76565 37.0567C4.99391 37.3854 5.4449 37.4666 5.77293 37.2381C6.10097 37.0096 6.18227 36.5579 5.95402 36.2292C3.42381 32.5814 2.0904 28.294 2.0904 23.8533C2.0904 18.4028 4.10234 13.2096 7.77708 9.19038L7.57001 11.7768C7.53869 12.1759 7.83648 12.5248 8.23496 12.5561C8.63334 12.5875 8.98175 12.2893 9.01308 11.8901L9.37896 7.32192C9.42088 6.87793 9.04929 6.49524 8.60192 6.53034L4.02846 6.89797C3.63007 6.92926 3.33237 7.27812 3.36351 7.67731C3.39475 8.07623 3.74316 8.37449 4.14154 8.3432ZM11.4187 6.00419C15.0608 3.47002 19.3417 2.13442 23.7753 2.13442C29.2172 2.13442 34.4023 4.1496 38.4153 7.83011L35.833 7.62263C35.4346 7.59134 35.0862 7.88942 35.0548 8.28861C35.0235 8.68762 35.3213 9.03667 35.7198 9.06795L40.2808 9.43441C40.7241 9.47639 41.1061 9.10423 41.0712 8.65606L40.7042 4.0756C40.6729 3.6765 40.3246 3.37842 39.9261 3.40962C39.5276 3.44082 39.2299 3.78977 39.2612 4.18896L39.4736 6.83893C35.1894 2.87114 29.6112 0.683472 23.7753 0.683472C19.0535 0.683472 14.4711 2.1151 10.5925 4.81396C10.2645 5.04248 10.1832 5.49418 10.4114 5.82282C10.6396 6.15146 11.0907 6.23262 11.4187 6.00419ZM41.5963 11.4773C41.3682 11.1487 41.4494 10.6971 41.7774 10.4686C42.1056 10.24 42.5565 10.3213 42.7847 10.6499C45.4794 14.5346 46.9088 19.1241 46.9088 23.8533C46.9088 26.4539 46.4794 28.9564 45.6877 31.2937C45.3553 30.8301 44.9857 30.3949 44.583 29.9926C45.1537 28.0474 45.4602 25.9871 45.4602 23.8533C45.4601 19.4127 44.1267 15.1252 41.5963 11.4773ZM31.2038 45.8003C30.7409 45.467 30.3062 45.0966 29.9043 44.6932C27.9632 45.2652 25.9064 45.5722 23.7753 45.5722C18.3333 45.5722 13.1484 43.5571 9.13522 39.8765L11.7176 40.084C12.116 40.1153 12.4644 39.8172 12.4957 39.418C12.527 39.0189 12.2292 38.67 11.8308 38.6387L7.26969 38.2722C6.82639 38.2303 6.44439 38.6024 6.47934 39.0505L6.84631 43.6311C6.87764 44.0301 7.22595 44.3282 7.62443 44.297C8.02291 44.2658 8.32061 43.9168 8.28937 43.5177L8.07696 40.8677C12.3613 44.8356 17.9394 47.0231 23.7753 47.0231C26.3025 47.0231 28.8104 46.6131 31.2038 45.8003ZM35.7797 21.4434C35.4617 19.8476 34.8352 18.3635 33.9642 17.0566L35.6725 15.3457L32.2696 11.9375L30.5615 13.6483C29.2564 12.7761 27.7749 12.1482 26.1813 11.8301V9.41164H21.369V11.8301C19.7756 12.1483 18.2939 12.7759 16.989 13.6483L15.2808 11.9375L11.878 15.3457L13.5861 17.0564C12.7152 18.3635 12.0884 19.8475 11.7706 21.4434H9.35623V26.2632H11.7706C12.0884 27.8591 12.7152 29.3433 13.5861 30.6502L11.878 32.361L15.2808 35.7693L16.989 34.0585C18.2941 34.9307 19.7756 35.5585 21.369 35.8767V38.2949H26.1813V35.8767C26.4609 35.8209 26.7368 35.7555 27.0092 35.681C27.7197 31.2795 31.1897 27.8042 35.5843 27.0923C35.6587 26.8196 35.7238 26.5432 35.7797 26.2632H38.1943V21.4434H35.7797ZM23.7751 31.3631C19.6342 31.3631 16.2772 28.0009 16.2772 23.8534C16.2772 19.7058 19.6341 16.3437 23.7751 16.3437C27.916 16.3437 31.2732 19.7058 31.2732 23.8534C31.2732 28.0009 27.9159 31.3631 23.7751 31.3631Z" fill="#256BFE"/>
</svg>
