<svg width="47" height="47" viewBox="0 0 47 47" fill="none" xmlns="http://www.w3.org/2000/svg">
<path d="M43.7608 17.4903C43.5536 17.5326 43.3568 17.6153 43.1816 17.7338C43.0064 17.8524 42.8562 18.0043 42.7396 18.1809C42.623 18.3576 42.5423 18.5555 42.5021 18.7634C42.4619 18.9713 42.463 19.1851 42.5053 19.3926C43.3251 23.4133 42.8829 27.5895 41.2393 31.3485C39.5957 35.1074 36.8313 38.2651 33.3251 40.3883C29.819 42.5115 25.7428 43.4964 21.6558 43.2077C17.5687 42.919 13.6709 41.371 10.497 38.776C7.32305 36.1809 5.02841 32.666 3.92781 28.7132C2.8272 24.7604 2.97453 20.5633 4.34958 16.6977C5.72464 12.8321 8.26007 9.4872 11.6081 7.12182C14.9562 4.75644 18.9529 3.48641 23.0501 3.48594C25.0696 3.484 27.0774 3.7921 29.0037 4.3995C29.408 4.51918 29.8431 4.47517 30.2155 4.27691C30.5878 4.07866 30.8675 3.742 30.9946 3.33931C31.1217 2.93663 31.0859 2.50008 30.895 2.12352C30.7041 1.74697 30.3733 1.46047 29.9737 1.32564C25.1528 -0.187553 19.9689 -0.0715256 15.2202 1.65585C10.4716 3.38324 6.42156 6.62618 3.69381 10.8853C0.966054 15.1444 -0.288165 20.1836 0.124285 25.2267C0.536734 30.2699 2.59298 35.0374 5.97639 38.7952C9.3598 42.553 13.8827 45.0926 18.8487 46.023C23.8147 46.9534 28.9484 46.2229 33.4592 43.9441C37.9701 41.6654 41.6079 37.9646 43.8125 33.4118C46.0172 28.8589 46.6664 23.7064 45.6602 18.7478C45.618 18.5403 45.5353 18.3431 45.417 18.1676C45.2987 17.9921 45.147 17.8417 44.9706 17.7249C44.7942 17.6081 44.5966 17.5273 44.389 17.4871C44.1814 17.4468 43.968 17.4479 43.7608 17.4903ZM37.0647 7.31214L38.61 5.76661V12.6215C38.61 13.0491 38.7796 13.4592 39.0814 13.7615C39.3833 14.0638 39.7927 14.2337 40.2196 14.2337C40.6465 14.2337 41.0559 14.0638 41.3578 13.7615C41.6597 13.4592 41.8293 13.0491 41.8293 12.6215V5.76661L43.3745 7.31214C43.6796 7.59691 44.0832 7.75195 44.5002 7.74458C44.9172 7.73721 45.3151 7.56801 45.61 7.27264C45.9049 6.97726 46.0739 6.57876 46.0812 6.1611C46.0886 5.74344 45.9338 5.33923 45.6495 5.03362L41.3571 0.734512C41.055 0.433131 40.646 0.263916 40.2196 0.263916C39.7932 0.263916 39.3842 0.433131 39.0821 0.734512L34.7898 5.03362C34.5054 5.33923 34.3507 5.74344 34.358 6.1611C34.3654 6.57876 34.5343 6.97726 34.8292 7.27264C35.1241 7.56801 35.522 7.73721 35.939 7.74458C36.356 7.75195 36.7596 7.59691 37.0647 7.31214ZM23.0029 35.7292C23.4298 35.7292 23.8392 35.5594 24.1411 35.257C24.443 34.9547 24.6126 34.5446 24.6126 34.1171V33.2572C25.9016 33.0712 27.086 32.4424 27.9632 31.4782C28.8403 30.5141 29.3557 29.2746 29.4211 27.9719C29.4865 26.6692 29.0979 25.3842 28.3218 24.3368C27.5456 23.2893 26.4302 22.5446 25.1663 22.23L21.7152 21.3702C21.1883 21.2382 20.7215 20.9313 20.391 20.4996C20.0633 20.0793 19.8871 19.5604 19.8909 19.0272C19.8932 18.3888 20.1479 17.7774 20.5991 17.3266C21.0504 16.8758 21.6616 16.6224 22.299 16.6219H23.8013C24.3944 16.6229 24.9664 16.8426 25.4082 17.2391C25.8499 17.6356 26.1305 18.181 26.1964 18.7714C26.214 18.9865 26.2745 19.1958 26.3744 19.387C26.4742 19.5782 26.6114 19.7474 26.7777 19.8845C26.944 20.0216 27.1361 20.1239 27.3426 20.1853C27.5492 20.2467 27.7659 20.266 27.98 20.2419C28.1941 20.2179 28.4012 20.1511 28.589 20.0454C28.7768 19.9397 28.9416 19.7974 29.0735 19.6268C29.2053 19.4562 29.3017 19.2608 29.3568 19.0522C29.4119 18.8436 29.4246 18.626 29.3943 18.4124C29.2563 17.1744 28.7119 16.0172 27.8465 15.1225C26.9811 14.2277 25.8437 13.6459 24.6126 13.4685V12.6215C24.6126 12.194 24.443 11.7839 24.1411 11.4816C23.8392 11.1792 23.4298 11.0094 23.0029 11.0094C22.576 11.0094 22.1666 11.1792 21.8647 11.4816C21.5629 11.7839 21.3933 12.194 21.3933 12.6215V13.4814C20.1166 13.6894 18.9506 14.3322 18.0923 15.3014C17.2339 16.2705 16.7357 17.5066 16.6817 18.801C16.6277 20.0954 17.0213 21.3688 17.796 22.4063C18.5707 23.4437 19.6791 24.1817 20.934 24.4957L24.3851 25.3555C24.9547 25.4992 25.4524 25.8463 25.7845 26.3316C26.1166 26.8169 26.2603 27.407 26.1887 27.991C26.117 28.5749 25.8348 29.1126 25.3952 29.5028C24.9555 29.8931 24.3887 30.1091 23.8013 30.1103H22.299C21.7058 30.1092 21.1338 29.8895 20.6921 29.493C20.2503 29.0966 19.9697 28.5511 19.9038 27.9607C19.8862 27.7457 19.8257 27.5364 19.7259 27.3452C19.626 27.154 19.4889 26.9848 19.3226 26.8477C19.1562 26.7105 18.9641 26.6082 18.7576 26.5468C18.5511 26.4854 18.3344 26.4662 18.1203 26.4902C17.9062 26.5142 17.6991 26.5811 17.5112 26.6867C17.3234 26.7924 17.1587 26.9348 17.0268 27.1054C16.8949 27.276 16.7986 27.4714 16.7435 27.68C16.6884 27.8886 16.6756 28.1061 16.706 28.3197C16.8412 29.5427 17.3727 30.6876 18.2192 31.5793C19.0657 32.471 20.1806 33.0603 21.3933 33.2572V34.1171C21.3933 34.5446 21.5629 34.9547 21.8647 35.257C22.1666 35.5594 22.576 35.7292 23.0029 35.7292Z" fill="#256BFE"/>
</svg>
