<svg width="54" height="54" viewBox="0 0 54 54" fill="none" xmlns="http://www.w3.org/2000/svg">
<path fill-rule="evenodd" clip-rule="evenodd" d="M51.2289 25.5612H46.7117C46.0126 25.5612 45.4463 24.9949 45.4463 24.2958C45.4463 23.5966 46.0126 23.0303 46.7117 23.0303H51.2289C51.928 23.0303 52.4943 23.5966 52.4943 24.2958C52.4943 24.9949 51.928 25.5612 51.2289 25.5612Z" fill="#1351D8"/>
<path fill-rule="evenodd" clip-rule="evenodd" d="M35.415 48.4351H20.2951C19.596 48.4351 19.0297 47.8688 19.0297 47.1696C19.0297 39.4625 17.0433 37.2697 15.1219 35.1492C13.2647 33.0991 11.3447 30.979 11.3447 25.0527C11.3447 22.104 12.1325 19.2089 13.6232 16.6808C13.9778 16.0788 14.7538 15.8785 15.3561 16.2336C15.958 16.5886 16.1584 17.3645 15.8033 17.9664C14.5419 20.1053 13.8754 22.5557 13.8754 25.0527C13.8754 30.0032 15.2531 31.5241 16.9975 33.45C19.0287 35.6925 21.3169 38.2185 21.5419 45.9046H34.1667C34.3395 39.7945 35.785 36.8441 37.8895 34.378C38.3434 33.8453 39.1432 33.7834 39.6733 34.237C40.205 34.6904 40.2683 35.4893 39.8143 36.0208C38.2981 37.798 36.6803 40.2716 36.6803 47.1704C36.6804 47.8685 36.1139 48.4351 35.415 48.4351ZM41.8298 32.6693C41.6312 32.6693 41.4296 32.6224 41.2411 32.5231C40.6228 32.1975 40.386 31.4321 40.7117 30.8135C41.4775 29.3604 41.8343 27.5296 41.8343 25.0524C41.8343 17.3444 35.5636 11.0731 27.855 11.0731C24.5694 11.0731 21.3765 12.2366 18.8646 14.3488C18.3299 14.7983 17.5312 14.7298 17.0816 14.1945C16.6318 13.6598 16.7007 12.8616 17.2358 12.4115C20.203 9.91625 23.9746 8.54187 27.8551 8.54187C36.959 8.54187 44.365 15.9479 44.365 25.0518C44.365 27.9567 43.9161 30.1618 42.9507 31.9926C42.7243 32.4233 42.285 32.6693 41.8298 32.6693Z" fill="black"/>
<path fill-rule="evenodd" clip-rule="evenodd" d="M30.5515 48.4351C29.8523 48.4351 29.2861 47.8688 29.2861 47.1696V40.8149C29.2861 40.5925 29.3446 40.3747 29.4557 40.1822L31.2082 37.1471V29.9878C31.2082 29.2886 31.7745 28.7223 32.4736 28.7223C33.1728 28.7223 33.739 29.2886 33.739 29.9878V37.4853C33.739 37.7076 33.6806 37.9255 33.5695 38.1181L31.8169 41.1531V47.1686C31.8169 47.8685 31.2505 48.4351 30.5515 48.4351Z" fill="black"/>
<path fill-rule="evenodd" clip-rule="evenodd" d="M25.1575 48.4351C24.4584 48.4351 23.8921 47.8688 23.8921 47.1696V41.1536L22.1394 38.1186C22.0284 37.926 21.9699 37.7076 21.9699 37.4858L21.9697 29.9878C21.9697 29.2886 22.536 28.7223 23.2351 28.7223C23.9342 28.7223 24.5005 29.2886 24.5005 29.9878V37.1466L26.2532 40.1817C26.3643 40.3742 26.4227 40.5925 26.4227 40.8144V47.1691C26.4229 47.8685 25.8564 48.4351 25.1575 48.4351Z" fill="black"/>
<path fill-rule="evenodd" clip-rule="evenodd" d="M35.4344 31.2533H20.2742C19.5751 31.2533 19.0088 30.687 19.0088 29.9879C19.0088 29.2887 19.5751 28.7224 20.2742 28.7224H35.4344C36.1336 28.7224 36.6997 29.2887 36.6997 29.9879C36.6997 30.687 36.1336 31.2533 35.4344 31.2533Z" fill="black"/>
<path fill-rule="evenodd" clip-rule="evenodd" d="M27.8542 7.06352C27.1552 7.06352 26.5889 6.49722 26.5889 5.79801V1.27039C26.5889 0.571181 27.1552 0.00488281 27.8542 0.00488281C28.5533 0.00488281 29.1196 0.571177 29.1196 1.27039V5.79801C29.1196 6.49722 28.5533 7.06352 27.8542 7.06352Z" fill="#1351D8"/>
<path fill-rule="evenodd" clip-rule="evenodd" d="M38.1836 9.90712C37.9692 9.90712 37.7517 9.85218 37.5517 9.73758C36.9467 9.38841 36.7393 8.61421 37.0886 8.00905L39.3521 4.08822C39.7011 3.48318 40.4748 3.27527 41.0811 3.62507C41.686 3.97423 41.8934 4.74843 41.5442 5.35359L39.2805 9.27443C39.0461 9.68003 38.6208 9.90712 38.1836 9.90712Z" fill="#1351D8"/>
<path fill-rule="evenodd" clip-rule="evenodd" d="M45.7093 17.5347C45.2717 17.5347 44.8464 17.3075 44.6121 16.902C44.2628 16.2971 44.47 15.5229 45.0752 15.1735L48.996 12.9098C49.6029 12.5607 50.3758 12.7684 50.7249 13.373C51.0742 13.978 50.867 14.7522 50.2618 15.1016L46.341 17.3652C46.1416 17.4798 45.9241 17.5347 45.7093 17.5347Z" fill="#1351D8"/>
<path fill-rule="evenodd" clip-rule="evenodd" d="M17.5256 9.90704C17.088 9.90704 16.663 9.67995 16.4284 9.27435L14.1647 5.35352C13.8155 4.74849 14.0228 3.97428 14.6279 3.62499C15.2339 3.2757 16.0071 3.48298 16.3565 4.08814L18.6201 8.00898C18.9692 8.61401 18.7621 9.38821 18.1569 9.7375C17.9575 9.85211 17.74 9.90704 17.5256 9.90704Z" fill="#1351D8"/>
<path fill-rule="evenodd" clip-rule="evenodd" d="M10.0002 17.5347C9.78536 17.5347 9.56786 17.4798 9.3683 17.3652L5.44747 15.1016C4.84243 14.7523 4.63453 13.9781 4.98432 13.3729C5.33349 12.768 6.10818 12.5606 6.71285 12.9098L10.6338 15.1735C11.2387 15.5227 11.4466 16.2969 11.097 16.902C10.8626 17.3075 10.4374 17.5347 10.0002 17.5347Z" fill="#1351D8"/>
<path fill-rule="evenodd" clip-rule="evenodd" d="M7.2986 27.9017H2.77124C2.07216 27.9017 1.50586 27.3351 1.50586 26.6364C1.50586 25.9378 2.07215 25.371 2.77124 25.371H7.2986C7.99781 25.371 8.56411 25.9373 8.56411 26.6364C8.56411 27.3356 7.99782 27.9017 7.2986 27.9017Z" fill="#1351D8"/>
<path fill-rule="evenodd" clip-rule="evenodd" d="M33.4855 53.9952H22.2234C21.5243 53.9952 20.958 53.4291 20.958 52.7298V47.1696C20.958 46.4705 21.5243 45.9042 22.2234 45.9042H33.4855C34.1845 45.9042 34.7508 46.4705 34.7508 47.1696V52.7298C34.7508 53.4288 34.1845 53.9952 33.4855 53.9952ZM23.4887 51.4645H32.2206V48.4346H23.4887V51.4645Z" fill="black"/>
</svg>
