<svg width="18" height="17" viewBox="0 0 18 17" fill="none" xmlns="http://www.w3.org/2000/svg">
<path d="M0.74975 15.9661C1.26408 15.8387 1.76341 15.7 2.24925 15.5523V18.0009H0.74975V15.9661ZM11.996 10.1166V18.0009H13.4955V8.60657C13.0382 9.1119 12.5418 9.61723 11.996 10.1166ZM4.4985 18.0009H5.998V14.1172C5.51741 14.3444 5.01508 14.5588 4.4985 14.765V18.0009ZM8.24725 18.0009H9.74675V11.9325C9.27366 12.2683 8.77133 12.5937 8.24725 12.9101V18.0009ZM16.6032 4.77759L18 4.23252L16.6992 0.897635C16.562 0.546752 16.2966 0.270094 15.9517 0.119394C15.606 -0.0320553 15.2214 -0.0395528 14.8728 0.0976515L11.5387 1.39772L12.0837 2.7945L14.4597 1.86781C13.2871 4.55417 9.25641 10.7726 0 13.0646V14.6106C9.94618 12.2863 14.3067 5.82424 15.7507 2.59207L16.6032 4.77759ZM15.7448 18.0009H17.2443V6.00493H15.7448V18.0009ZM0 4.50543C0 2.02451 2.01758 0.00693171 4.4985 0.00693171C6.97942 0.00693171 8.997 2.02451 8.997 4.50543C8.997 6.98636 6.97942 9.00393 4.4985 9.00393C2.01758 9.00393 0 6.98636 0 4.50543ZM3.37388 3.38081C3.37388 4.0016 3.87771 4.50543 4.4985 4.50543C5.11929 4.50543 5.62313 4.0016 5.62313 3.38081C5.62313 2.76001 5.11929 2.25618 4.4985 2.25618C3.87771 2.25618 3.37388 2.76001 3.37388 3.38081ZM2.24925 6.46828C2.79957 7.09807 3.59805 7.50443 4.4985 7.50443C5.39895 7.50443 6.19743 7.09807 6.74775 6.46828V6.37981C6.74775 5.75902 6.24392 5.25518 5.62313 5.25518H3.37388C2.75308 5.25518 2.24925 5.75902 2.24925 6.37981V6.46828Z" fill="#1351D8"/>
</svg>
