<svg width="56" height="85" viewBox="0 0 56 85" fill="none" xmlns="http://www.w3.org/2000/svg">
<path d="M47.5867 68.1026C45.4135 66.9902 42.6076 66.0911 39.3696 65.4579C40.3145 64.4083 41.2807 63.286 42.2493 62.0945C46.1178 57.3354 49.2046 52.4733 51.4241 47.6428C54.2298 41.5362 55.6524 35.4599 55.6524 29.5828C55.6524 13.2708 43.2782 0 28.0684 0C12.8586 0 0.484375 13.2708 0.484375 29.5828C0.484375 35.4599 1.90694 41.5362 4.7127 47.6429C6.93214 52.4735 10.0189 57.3356 13.8874 62.0946C14.856 63.2861 15.8223 64.4085 16.7672 65.458C13.5292 66.0913 10.7233 66.9904 8.55009 68.1027C4.41693 70.2181 3.54927 72.6327 3.54927 74.2857C3.54927 76.3788 4.8992 79.3565 11.3296 81.6554C15.8235 83.2619 21.768 84.1466 28.0684 84.1466C34.3687 84.1466 40.3132 83.2619 44.8071 81.6554C51.2376 79.3565 52.5875 76.3788 52.5875 74.2857C52.5875 72.6327 51.7198 70.2181 47.5867 68.1026ZM3.54927 29.5828C3.54927 15.0833 14.5485 3.28698 28.0684 3.28698C41.5882 3.28698 52.5875 15.0833 52.5875 29.5828C52.5875 41.785 45.734 52.7928 39.9845 59.8785C35.0456 65.9654 30.0468 70.2881 28.0684 71.9089C26.0895 70.2876 21.0907 65.9649 16.1522 59.8787C10.4028 52.7928 3.54927 41.785 3.54927 29.5828ZM43.8379 78.5372C39.6483 80.0348 34.048 80.8596 28.0684 80.8596C22.0888 80.8596 16.4885 80.0348 12.2989 78.5372C8.10292 77.0372 6.61416 75.3094 6.61416 74.2857C6.61416 72.5783 10.6079 69.6379 19.4614 68.3241C20.7726 69.6606 21.9935 70.824 23.0604 71.7979C21.4347 72.4003 20.4062 73.2911 20.4062 74.2857C20.4062 76.1017 23.8373 77.5727 28.0684 77.5727C32.2995 77.5727 35.7306 76.1017 35.7306 74.2857C35.7306 73.2911 34.702 72.4003 33.0764 71.7979C34.1433 70.824 35.3642 69.6606 36.6754 68.3241C45.5289 69.6379 49.5226 72.5783 49.5226 74.2857C49.5226 75.3094 48.0338 77.0372 43.8379 78.5372Z" fill="#256BFE"/>
<path d="M49.5257 29.5831C49.5257 16.896 39.9013 6.57422 28.0714 6.57422C16.2416 6.57422 6.61719 16.896 6.61719 29.5831C6.61719 42.2701 16.2416 52.5919 28.0714 52.5919C39.9013 52.5919 49.5257 42.2701 49.5257 29.5831ZM9.68208 29.5831C9.68208 18.7084 17.9315 9.8612 28.0714 9.8612C38.2113 9.8612 46.4608 18.7084 46.4608 29.5831C46.4608 40.4577 38.2113 49.3049 28.0714 49.3049C17.9315 49.3049 9.68208 40.4577 9.68208 29.5831Z" fill="#256BFE"/>
<path d="M29.5992 41.0871C29.5992 41.9948 30.2853 42.7306 31.1317 42.7306H37.2614C38.1078 42.7306 38.7939 41.9948 38.7939 41.0871V32.8697H41.8588C42.4951 32.8697 43.0651 32.4481 43.2912 31.8103C43.5172 31.1725 43.3523 30.4511 42.8768 29.9979L29.0848 16.85C28.5041 16.2964 27.6293 16.2964 27.0486 16.85L13.2566 29.9979C12.7811 30.4511 12.6162 31.1725 12.8422 31.8103C13.0683 32.4481 13.6385 32.8697 14.2748 32.8697H17.3397V41.0871C17.3397 41.9948 18.0257 42.7306 18.8721 42.7306H25.0019C25.8483 42.7306 26.5343 41.9948 26.5343 41.0871V36.1567H29.5992V41.0871ZM25.0019 32.8697C24.1555 32.8697 23.4694 33.6055 23.4694 34.5132V39.4437H20.4046V31.2262C20.4046 30.3185 19.7185 29.5827 18.8721 29.5827H18.3054L28.0668 20.2771L37.8281 29.5827H37.2614C36.4151 29.5827 35.729 30.3185 35.729 31.2262V39.4437H32.6641V34.5132C32.6641 33.6055 31.978 32.8697 31.1317 32.8697H25.0019Z" fill="#256BFE"/>
</svg>
