<svg width="46" height="46" viewBox="0 0 46 46" fill="none" xmlns="http://www.w3.org/2000/svg">
<path fill-rule="evenodd" clip-rule="evenodd" d="M14.1979 18.3125C6.725 18.3125 0.65625 24.3813 0.65625 31.8542C0.65625 39.3271 6.725 45.3958 14.1979 45.3958C21.6729 45.3958 27.7396 39.3271 27.7396 31.8542C27.7396 24.3813 21.6729 18.3125 14.1979 18.3125ZM14.1979 21.4375C19.9479 21.4375 24.6146 26.1042 24.6146 31.8542C24.6146 37.6042 19.9479 42.2708 14.1979 42.2708C8.45 42.2708 3.78125 37.6042 3.78125 31.8542C3.78125 26.1042 8.45 21.4375 14.1979 21.4375Z" fill="#30E87A"/>
<path fill-rule="evenodd" clip-rule="evenodd" d="M14.1979 18.3125C12.9813 18.3125 11.7708 18.9479 10.7604 20.2583C9.08125 22.4354 7.84375 26.8021 7.84375 31.8542C7.84375 36.9063 9.08125 41.2729 10.7604 43.45C11.7708 44.7604 12.9813 45.3958 14.1979 45.3958C15.4146 45.3958 16.625 44.7604 17.6375 43.45C19.3167 41.2729 20.5521 36.9063 20.5521 31.8542C20.5521 26.8021 19.3167 22.4354 17.6375 20.2583C16.625 18.9479 15.4146 18.3125 14.1979 18.3125ZM14.1979 21.4375C14.3833 21.4375 14.5458 21.5479 14.7125 21.6875C15.0583 21.975 15.3667 22.4062 15.6563 22.9354C16.7521 24.9458 17.4271 28.1979 17.4271 31.8542C17.4271 35.5104 16.7521 38.7625 15.6563 40.7729C15.3667 41.3021 15.0583 41.7333 14.7125 42.0208C14.5458 42.1604 14.3833 42.2708 14.1979 42.2708C14.0125 42.2708 13.85 42.1604 13.6854 42.0208C13.3375 41.7333 13.0292 41.3021 12.7417 40.7729C11.6438 38.7625 10.9688 35.5104 10.9688 31.8542C10.9688 28.1979 11.6438 24.9458 12.7417 22.9354C13.0292 22.4062 13.3375 21.975 13.6854 21.6875C13.85 21.5479 14.0125 21.4375 14.1979 21.4375Z" fill="#30E87A"/>
<path fill-rule="evenodd" clip-rule="evenodd" d="M25.2306 26.3229L3.1681 26.2979C2.3056 26.2979 1.6056 26.9979 1.60352 27.8604C1.60352 28.7208 2.30143 29.4229 3.16393 29.4229L25.2264 29.4479C26.0889 29.4479 26.791 28.7479 26.791 27.8854C26.7931 27.0229 26.0931 26.3229 25.2306 26.3229Z" fill="#30E87A"/>
<path fill-rule="evenodd" clip-rule="evenodd" d="M25.2306 34.3083L3.1681 34.2854C2.3056 34.2833 1.6056 34.9833 1.60352 35.8458C1.60352 36.7083 2.30143 37.4083 3.16393 37.4104L25.2264 37.4333C26.0889 37.4333 26.791 36.7354 26.791 35.8729C26.7931 35.0104 26.0931 34.3083 25.2306 34.3083Z" fill="#30E87A"/>
<path fill-rule="evenodd" clip-rule="evenodd" d="M3.72852 14.6666V6.33329C3.72852 4.89579 4.89518 3.72913 6.33268 3.72913H18.8327C19.6952 3.72913 20.3952 3.02913 20.3952 2.16663C20.3952 1.30413 19.6952 0.604126 18.8327 0.604126C18.8327 0.604126 11.2702 0.604126 6.33268 0.604126C3.1681 0.604126 0.603516 3.16871 0.603516 6.33329V14.6666C0.603516 15.5291 1.30352 16.2291 2.16602 16.2291C3.02852 16.2291 3.72852 15.5291 3.72852 14.6666Z" fill="#30E87A"/>
<path fill-rule="evenodd" clip-rule="evenodd" d="M42.2708 34.4583V39.6666C42.2708 41.1041 41.1042 42.2708 39.6667 42.2708H32.375C31.5125 42.2708 30.8125 42.9708 30.8125 43.8333C30.8125 44.6958 31.5125 45.3958 32.375 45.3958H39.6667C42.8313 45.3958 45.3958 42.8312 45.3958 39.6666V34.4583C45.3958 33.5958 44.6958 32.8958 43.8333 32.8958C42.9708 32.8958 42.2708 33.5958 42.2708 34.4583Z" fill="#30E87A"/>
<path fill-rule="evenodd" clip-rule="evenodd" d="M26.3334 18.8478C27.948 16.6957 30.5209 15.3041 33.4167 15.3041C38.3042 15.3041 42.2709 19.2707 42.2709 24.1582C42.2709 24.4937 42.0521 24.752 41.7667 24.9978C41.4292 25.2853 40.9917 25.5291 40.4875 25.7457C38.1875 26.7353 34.6688 27.077 31.45 26.8332C30.5917 26.7687 29.8396 27.4145 29.775 28.2749C29.7105 29.1332 30.3563 29.8853 31.2167 29.9499C35.6417 30.2832 40.5313 29.5457 43.0771 27.9062C44.5896 26.9291 45.3959 25.6353 45.3959 24.1582C45.3959 17.5457 40.0292 12.1791 33.4167 12.1791C29.5 12.1791 26.0209 14.0603 23.8334 16.9707C23.3167 17.6603 23.4563 18.6416 24.1459 19.1582C24.8334 19.677 25.8146 19.5374 26.3334 18.8478Z" fill="#30E87A"/>
<path fill-rule="evenodd" clip-rule="evenodd" d="M33.4164 0.604126C29.3602 0.604126 26.0664 3.89788 26.0664 7.95413C26.0664 12.0104 29.3602 15.3041 33.4164 15.3041C37.4727 15.3041 40.7664 12.0104 40.7664 7.95413C40.7664 3.89788 37.4727 0.604126 33.4164 0.604126ZM33.4164 3.72913C35.7477 3.72913 37.6414 5.62288 37.6414 7.95413C37.6414 10.2854 35.7477 12.1791 33.4164 12.1791C31.0852 12.1791 29.1914 10.2854 29.1914 7.95413C29.1914 5.62288 31.0852 3.72913 33.4164 3.72913Z" fill="#30E87A"/>
</svg>
