<svg width="48" height="48" viewBox="0 0 48 48" fill="none" xmlns="http://www.w3.org/2000/svg">
<path d="M29.4114 48H18.5885C17.7991 48 17.1378 47.4025 17.058 46.617L16.4774 40.9006C15.2205 40.3565 14.0304 39.6784 12.9225 38.8749L7.57477 41.2512C6.85908 41.5691 6.01898 41.2989 5.62288 40.6235L0.211492 31.3945C-0.192508 30.7054 -0.0021489 29.822 0.649749 29.3605L5.39324 26.0031C5.24698 24.6727 5.24698 23.3274 5.39324 21.9969L0.649749 18.6395C-0.0021489 18.1781 -0.192508 17.2946 0.211492 16.6055L5.62288 7.37662C6.01888 6.70113 6.85918 6.43087 7.57477 6.74892L12.9225 9.12523C14.0305 8.32174 15.2206 7.64349 16.4774 7.09949L17.058 1.38308C17.1378 0.597538 17.7991 0 18.5885 0H29.4114C30.2008 0 30.8622 0.597538 30.942 1.38297L31.5226 7.09938C32.7795 7.64349 33.9697 8.32164 35.0776 9.12513L40.4252 6.74882C41.1407 6.43077 41.9811 6.70113 42.377 7.37651L47.7884 16.6054C48.1924 17.2945 48.0021 18.1779 47.3502 18.6394L42.6067 21.9968C42.7529 23.3273 42.7529 24.6726 42.6067 26.0031L47.3502 29.3605C48.0021 29.822 48.1925 30.7054 47.7884 31.3945L42.377 40.6234C41.981 41.2989 41.1408 41.5691 40.4252 41.2511L35.0776 38.8748C33.9697 39.6782 32.7795 40.3564 31.5226 40.9005L30.942 46.6169C30.8623 47.4025 30.2008 48 29.4114 48ZM19.9787 44.9231H28.0212L28.5552 39.6657C28.6143 39.0831 28.9992 38.5845 29.5479 38.3798C31.1272 37.7905 32.5926 36.9563 33.9036 35.9004C34.3528 35.5388 34.9665 35.4585 35.4933 35.6927L40.4182 37.8811L44.4199 31.0563L40.0674 27.9756C39.587 27.6356 39.3428 27.0513 39.4381 26.4706C39.7063 24.8374 39.7063 23.1628 39.4381 21.5296C39.3427 20.9489 39.587 20.3646 40.0674 20.0246L44.4199 16.9439L40.4183 10.119L35.4934 12.3074C34.9666 12.5416 34.3529 12.4614 33.9037 12.0997C32.5927 11.0438 31.1273 10.2095 29.548 9.62031C28.9993 9.41549 28.6145 8.91703 28.5553 8.33436L28.0213 3.07692H19.9788L19.4448 8.33426C19.3856 8.91692 19.0007 9.41549 18.4521 9.6202C16.8729 10.2094 15.4074 11.0436 14.0964 12.0996C13.6473 12.4613 13.0335 12.5416 12.5067 12.3073L7.58175 10.119L3.58001 16.9438L7.93252 20.0245C8.41293 20.3645 8.65713 20.9488 8.56185 21.5295C8.29375 23.1628 8.29375 24.8373 8.56185 26.4706C8.65724 27.0513 8.41293 27.6355 7.93252 27.9756L3.58001 31.0563L7.58175 37.8811L12.5066 35.6927C13.0334 35.4585 13.6472 35.5388 14.0963 35.9004C15.4074 36.9564 16.8728 37.7906 18.452 38.3798C19.0007 38.5846 19.3855 39.0831 19.4447 39.6657L19.9787 44.9231Z" fill="#30E87A"/>
<path d="M29.9493 18.6088C29.2119 17.797 28.332 17.1537 27.334 16.6969L28.6146 13.8992C29.993 14.5301 31.2083 15.4187 32.2268 16.5401L29.9493 18.6088Z" fill="#30E87A"/>
<path d="M18.3462 33.5572C17.2202 32.8905 16.2297 32.0401 15.4023 31.03L17.7829 29.0804C18.3814 29.8113 19.0984 30.4267 19.9138 30.9095L18.3462 33.5572Z" fill="#30E87A"/>
<path d="M16.0394 22.9522C16.6018 18.6401 20.6612 15.5055 24.9719 16.0295L25.3429 12.9751C19.4534 12.2596 13.8866 16.4799 13.0131 22.3562L11.8808 21.4119L9.91016 23.775L13.5895 26.8435C14.0916 27.2622 14.825 27.315 15.3821 26.9717L19.4349 24.4738L17.8205 21.8545L16.0394 22.9522Z" fill="#30E87A"/>
<path d="M38.0901 24.225L34.4107 21.1565C33.9028 20.733 33.1812 20.6813 32.6182 21.0283L28.5655 23.5262L30.1799 26.1455L31.961 25.0478C31.3795 29.5067 27.07 32.6741 22.6419 31.9138L22.1211 34.9463C28.1727 35.9855 34.0837 31.723 34.9873 25.6438L36.1195 26.588L38.0901 24.225Z" fill="#30E87A"/>
</svg>
