<svg width="48" height="48" viewBox="0 0 48 48" fill="none" xmlns="http://www.w3.org/2000/svg">
<path d="M24.2989 0C18.5765 0.000107598 13.0473 2.07047 8.73207 5.82887C4.41688 9.58727 1.60708 14.7799 0.821408 20.4482C0.168251 25.2484 0.988862 30.1338 3.17453 34.4571L0.0512515 46.1117C-0.0170125 46.3661 -0.017085 46.634 0.0510412 46.8884C0.119167 47.1428 0.25309 47.3748 0.43934 47.5611C0.625589 47.7473 0.857599 47.8813 1.11203 47.9494C1.36647 48.0175 1.63435 48.0174 1.88875 47.9492L13.5433 44.8264C17.8667 47.0119 22.752 47.8325 27.5523 47.1795C33.2206 46.3937 38.4133 43.5838 42.1716 39.2685C45.93 34.9531 48.0002 29.4238 48.0002 23.7012C48.0001 17.4153 45.503 11.3868 41.0582 6.94201C36.6133 2.49718 30.5849 7.45905e-05 24.2989 0ZM38.9369 38.3393C34.9741 42.3022 29.6315 44.3809 24.2439 44.3805C20.8197 44.3857 17.4484 43.5354 14.4362 41.9069C14.0987 41.7238 13.7039 41.6771 13.333 41.7765L3.62144 44.3787L6.22366 34.6671C6.32297 34.2963 6.27629 33.9015 6.09325 33.564C1.75966 25.5725 3.22656 15.4975 9.66082 9.06328C17.7321 0.991875 30.8653 0.991406 38.9369 9.06328C47.0085 17.1352 47.0083 30.2678 38.9369 38.3393ZM35.912 16.5634C35.5971 16.3791 35.2388 16.2819 34.8738 16.2819C34.5089 16.2819 34.1506 16.3791 33.8357 16.5634L31.3437 18.0022C31.1222 17.131 30.617 16.3585 29.9078 15.8063C29.1986 15.2541 28.3257 14.9537 27.4269 14.9525H15.0894C14.0183 14.9537 12.9914 15.3797 12.234 16.1371C11.4766 16.8945 11.0506 17.9214 11.0494 18.9925V29.0074C11.0506 30.0785 11.4767 31.1054 12.234 31.8627C12.9914 32.6201 14.0183 33.0461 15.0894 33.0473H27.4269C28.3257 33.0461 29.1986 32.7458 29.9078 32.1936C30.617 31.6414 31.1222 30.8688 31.3437 29.9977L33.8356 31.4364C34.1512 31.6187 34.5093 31.7147 34.8738 31.7147C35.2383 31.7147 35.5964 31.6188 35.9121 31.4365C36.2278 31.2543 36.4899 30.9922 36.6722 30.6765C36.8545 30.3608 36.9504 30.0027 36.9504 29.6382V18.3617C36.9525 17.9967 36.8575 17.6378 36.675 17.3218C36.4925 17.0057 36.2292 16.744 35.912 16.5634ZM28.467 29.0074C28.4666 29.2831 28.3569 29.5474 28.162 29.7424C27.967 29.9373 27.7026 30.047 27.4269 30.0473H15.0894C14.8137 30.047 14.5494 29.9373 14.3544 29.7424C14.1594 29.5474 14.0498 29.2831 14.0494 29.0074V18.9926C14.0498 18.7169 14.1594 18.4526 14.3544 18.2576C14.5493 18.0626 14.8137 17.9529 15.0894 17.9526H27.4269C27.7027 17.9529 27.967 18.0626 28.162 18.2575C28.357 18.4525 28.4667 18.7169 28.467 18.9926V29.0074ZM33.9504 28.0386L31.467 26.6047V21.3952L33.9504 19.9609V28.0386Z" fill="#30E87A"/>
</svg>
