<svg width="19" height="18" viewBox="0 0 19 18" fill="none" xmlns="http://www.w3.org/2000/svg">
<path d="M8.88218 17.9503C7.79135 17.9503 7.06351 17.4361 6.4136 16.9823C5.95251 16.6551 5.51893 16.3443 5.00835 16.2582C4.76525 16.2164 4.51893 16.1961 4.27226 16.1977C3.8396 16.1977 3.49585 16.2627 3.2511 16.3122C3.09526 16.3397 2.9651 16.3654 2.86243 16.3654C2.7561 16.3654 2.62135 16.3361 2.5691 16.1564C2.52326 16.0097 2.49485 15.8704 2.46643 15.7357C2.3931 15.3965 2.33168 15.1884 2.20426 15.1673C0.839346 14.9592 0.0225963 14.6448 -0.136904 14.2727C-0.149737 14.2323 -0.16532 14.1902 -0.16532 14.1581C-0.174487 14.0435 -0.091987 13.95 0.0225963 13.9289C1.10518 13.7493 2.07776 13.1736 2.8991 12.2257C3.5371 11.4897 3.84785 10.7783 3.87626 10.7013C3.87626 10.6922 3.88451 10.6922 3.88451 10.6922C4.04035 10.3704 4.07243 10.0963 3.97801 9.87175C3.80293 9.45008 3.22176 9.27042 2.82576 9.14758C2.72401 9.12008 2.63785 9.08708 2.56451 9.06233C2.22535 8.92758 1.66068 8.64067 1.73493 8.24467C1.7881 7.95867 2.1676 7.75425 2.47835 7.75425C2.56451 7.75425 2.63785 7.76708 2.69835 7.80008C3.04668 7.95867 3.3611 8.04025 3.6306 8.04025C3.9661 8.04025 4.1256 7.91375 4.16593 7.87342C4.15739 7.6921 4.1467 7.51089 4.13385 7.32983C4.05135 6.07858 3.95785 4.52575 4.35385 3.63567C5.54368 0.970916 8.0691 0.757333 8.8171 0.757333L9.14343 0.75H9.18926C9.93635 0.75 12.4618 0.958083 13.6516 3.62742C14.0522 4.5175 13.9541 6.07492 13.8716 7.32158L13.8643 7.383C13.8551 7.54983 13.8432 7.70933 13.8349 7.87342C13.8762 7.9055 14.0228 8.02833 14.3253 8.032C14.5875 8.02467 14.8735 7.9385 15.1998 7.79092C15.2902 7.75186 15.3874 7.73128 15.4858 7.73042C15.6004 7.73042 15.715 7.75792 15.8131 7.79092H15.8213C16.0954 7.89358 16.2751 8.08517 16.2751 8.28592C16.2833 8.47383 16.1358 8.75983 15.4373 9.04217C15.3639 9.06967 15.2778 9.10358 15.176 9.12742C14.7873 9.24658 14.2071 9.4345 14.0228 9.85158C13.9211 10.0716 13.9623 10.3539 14.1173 10.672C14.1173 10.6812 14.1255 10.6812 14.1255 10.6812C14.1704 10.7948 15.3511 13.4761 17.9792 13.9133C18.0329 13.9224 18.0815 13.9506 18.1161 13.9927C18.1506 14.0348 18.1687 14.088 18.1671 14.1425C18.1671 14.1828 18.1588 14.2241 18.1387 14.2607C17.9792 14.6366 17.1698 14.9427 15.7966 15.1554C15.6701 15.1756 15.6087 15.3846 15.5353 15.7237C15.506 15.8651 15.4717 16.0055 15.4327 16.1445C15.3923 16.2793 15.3062 16.3526 15.1595 16.3526H15.1384C15.0449 16.3526 14.9184 16.3407 14.7507 16.3077C14.4147 16.2361 14.0721 16.2004 13.7286 16.2013C13.4875 16.2013 13.2382 16.2224 12.9934 16.2627C12.4865 16.3452 12.0493 16.6597 11.5873 16.9869C10.93 17.4361 10.1985 17.9503 9.11501 17.9503H8.88218Z" fill="#150E3D"/>
</svg>
