<svg width="19" height="17" viewBox="0 0 19 17" fill="none" xmlns="http://www.w3.org/2000/svg">
<path d="M4.25 0.625C7.30375 0.625 9.83512 2.85975 10.2989 5.78313C11.327 4.7585 12.7462 4.125 14.3125 4.125H18.25V6.3125C18.25 9.45375 15.7037 12 12.5625 12H10.375V16.375H8.625V9.375H6.875C3.49225 9.375 0.75 6.63275 0.75 3.25V0.625H4.25ZM16.5 5.875H14.3125C12.1381 5.875 10.375 7.63812 10.375 9.8125V10.25H12.5625C14.7369 10.25 16.5 8.48688 16.5 6.3125V5.875ZM4.25 2.375H2.5V3.25C2.5 5.66587 4.45912 7.625 6.875 7.625H8.625V6.75C8.625 4.33413 6.66587 2.375 4.25 2.375Z" fill="#150E3D"/>
</svg>
