<svg width="19" height="19" viewBox="0 0 19 19" fill="none" xmlns="http://www.w3.org/2000/svg">
<path d="M4.45562 4.64637C3.34004 5.80425 2.65706 7.31088 2.5215 8.91302C2.38594 10.5152 2.80605 12.1151 3.71122 13.444C4.6164 14.7728 5.95145 15.7496 7.49197 16.21C9.03249 16.6705 10.6846 16.5866 12.1705 15.9724C12.2711 15.3161 12.0506 14.6861 11.9605 14.4656C11.7592 13.9756 11.096 13.1382 9.98912 11.9771C9.69337 11.6665 9.71262 11.4276 9.8185 10.7197L9.82987 10.6401C9.90162 10.1554 10.0224 9.86837 11.6542 9.60937C12.4837 9.47812 12.7016 9.80887 13.0035 10.2682L13.105 10.4187C13.392 10.8387 13.6046 10.935 13.9257 11.0802C14.0701 11.1459 14.2495 11.229 14.4901 11.3646C15.0606 11.691 15.0606 12.0594 15.0606 12.8661V12.958C15.0606 13.3001 15.0274 13.6011 14.9749 13.8627C15.6463 13.0201 16.1142 12.0338 16.3421 10.9807C16.5701 9.92757 16.5519 8.83607 16.289 7.79115C16.0261 6.74624 15.5255 5.77609 14.8264 4.95625C14.1272 4.1364 13.2483 3.48898 12.258 3.06437C11.7741 3.39075 11.11 3.85362 10.8781 4.17125C10.76 4.33312 10.592 5.16175 10.0469 5.23C9.90512 5.2475 9.7135 5.23525 9.5105 5.22212C8.96625 5.18712 8.2225 5.139 7.9845 5.78562C7.83312 6.19512 7.80687 7.30812 8.296 7.88562C8.37475 7.9775 8.38962 8.14812 8.33625 8.33975C8.26625 8.59087 8.12537 8.744 8.08075 8.7755C7.99675 8.7265 7.82875 8.53137 7.71412 8.39925C7.44025 8.07987 7.09725 7.68175 6.6545 7.55925C6.4935 7.51462 6.31675 7.47787 6.14437 7.44112C5.664 7.3405 5.12062 7.22587 4.99375 6.95637C4.901 6.75862 4.90187 6.4865 4.90187 6.1995C4.90187 5.83462 4.90187 5.4225 4.72337 5.02262C4.66132 4.87992 4.57012 4.75176 4.45562 4.64637ZM9.5 18.25C4.66737 18.25 0.75 14.3326 0.75 9.5C0.75 4.66737 4.66737 0.75 9.5 0.75C14.3326 0.75 18.25 4.66737 18.25 9.5C18.25 14.3326 14.3326 18.25 9.5 18.25Z" fill="#150E3D"/>
</svg>
