<svg width="29" height="22" viewBox="0 0 29 22" fill="none" xmlns="http://www.w3.org/2000/svg">
<path d="M7.20351 11.7307L14.2022 18.7294C15.5144 20.0417 17.789 19.1231 17.789 17.2422V14.1365C22.9505 14.3552 23.0817 15.4925 22.3381 18.0733C21.7695 19.9542 23.9128 21.4851 25.5313 20.3916C27.7621 18.8606 28.9869 16.936 28.9869 14.1365C28.9869 7.88147 23.3879 6.6567 17.789 6.438V3.28859C17.789 1.4077 15.5144 0.489124 14.2022 1.80138L7.20351 8.80005C6.37242 9.5874 6.37242 10.9434 7.20351 11.7307ZM8.69073 10.2435L15.6894 3.24485V8.49386C20.9384 8.49386 26.8873 8.80005 26.8873 14.1365C26.8873 16.5861 25.6188 17.8108 24.3503 18.6419C26.1437 12.6931 21.682 11.9932 15.6894 11.9932V17.2422L8.69073 10.2435ZM1.60457 8.80005C0.773479 9.5874 0.773479 10.9434 1.60457 11.7307L8.60324 18.7294C9.47808 19.648 10.7903 19.5168 11.5777 18.7294L3.09179 10.2435L11.5777 1.80138C10.7903 1.01402 9.47808 0.8828 8.60324 1.80138L1.60457 8.80005Z" fill="#072032"/>
</svg>
