<svg width="52" height="52" viewBox="0 0 52 52" fill="none" xmlns="http://www.w3.org/2000/svg">
<g clip-path="url(#clip0_2249_2059)">
<path d="M13.9103 32.7269C14.3959 32.4468 14.5621 31.8252 14.282 31.3396C14.0015 30.8544 13.3803 30.6877 12.8947 30.9678C12.4091 31.2483 12.2424 31.87 12.5229 32.3552C12.803 32.8408 13.4247 33.0074 13.9103 32.7269Z" fill="white"/>
<path d="M9.7484 39.7367L14.863 48.5961C15.9667 50.5099 18.4494 51.2185 20.4129 50.0834C22.3556 48.9607 23.0233 46.4784 21.8994 44.534L18.8525 39.2559L21.4912 37.7325C21.9768 37.4516 22.1434 36.8307 21.8629 36.3451L20.5422 34.0576C20.6997 34.027 21.7352 33.8239 39.9954 30.2418C42.2528 30.1192 43.6052 27.6504 42.465 25.6767L39.0896 19.8305L41.2467 16.5634C41.4585 16.2421 41.4712 15.8291 41.2788 15.4958L39.2475 11.9776C39.0551 11.6444 38.6897 11.4492 38.3069 11.4718L34.3995 11.7063L30.6524 5.21579C30.1097 4.27554 29.1373 3.70624 28.0519 3.69275C28.0388 3.69235 28.0261 3.69235 28.013 3.69235C26.964 3.69235 26.0119 4.21445 25.4477 5.09717L12.1803 21.9986L3.55507 26.9783C0.162642 28.9362 -1.01247 33.2883 0.952926 36.6899C2.74852 39.8002 6.5341 41.0237 9.7484 39.7367ZM20.1407 45.55C20.7017 46.5204 20.3696 47.7622 19.3964 48.3243C18.4201 48.8889 17.1767 48.5421 16.6221 47.5809L11.544 38.7842L15.0622 36.7529C20.9393 46.9338 20.0463 45.387 20.1407 45.55ZM17.8369 37.4964L16.8213 35.7373L18.5804 34.7217L19.596 36.4808L17.8369 37.4964ZM37.8023 13.5368L39.2059 15.9679L37.9542 17.8635L35.535 13.6729L37.8023 13.5368ZM27.1465 6.21079C27.4191 5.76486 27.8515 5.71884 28.0269 5.7236C28.2002 5.72559 28.6323 5.77954 28.8929 6.23102L40.7059 26.6923C41.0907 27.3584 40.623 28.1959 39.8514 28.215C39.7129 28.2181 39.649 28.2431 39.2944 28.3094L26.7986 6.66583C27.0608 6.32861 27.0946 6.29608 27.1465 6.21079ZM25.4469 8.38764L37.1873 28.7228L19.4686 32.1981L14.0811 22.8666L25.4469 8.38764ZM2.71202 35.6742C2.2661 34.9026 2.03044 34.0266 2.03044 33.1403C2.03044 31.3289 3.00401 29.642 4.57069 28.7374L12.4866 24.1671L17.5647 32.9626L9.64882 37.5333C7.22362 38.933 4.11207 38.099 2.71202 35.6742Z" fill="white"/>
<path d="M10.7641 33.3708C10.4836 32.8852 9.86232 32.7186 9.37673 32.9991L7.61763 34.0147C7.13283 34.2948 6.51036 34.1278 6.23027 33.643C5.94978 33.1574 5.32851 32.9908 4.84291 33.2712C4.35732 33.5517 4.19069 34.173 4.47118 34.6586C5.30708 36.1067 7.17171 36.6173 8.63326 35.7738L10.3924 34.7582C10.8779 34.4777 11.0446 33.8568 10.7641 33.3708Z" fill="white"/>
<path d="M50.4909 5.86483L44.8315 9.01406C44.3416 9.28701 44.165 9.90551 44.438 10.3955C44.7101 10.885 45.3282 11.0624 45.8194 10.789L51.4783 7.6398C51.9687 7.36685 52.1448 6.74835 51.8719 6.25839C51.5993 5.76803 50.9808 5.59188 50.4909 5.86483Z" fill="white"/>
<path d="M49.8974 16.3837L45.9733 15.3324C45.4314 15.1872 44.8744 15.5085 44.7292 16.0504C44.584 16.5924 44.9057 17.149 45.4477 17.2942L49.3721 18.3455C49.9172 18.4919 50.4714 18.1654 50.6158 17.6274C50.7611 17.0855 50.4393 16.5285 49.8974 16.3837Z" fill="white"/>
<path d="M40.0356 2.17487L38.9831 6.0993C38.8379 6.64124 39.1593 7.19785 39.7012 7.34345C40.2427 7.48825 40.7997 7.1677 40.9453 6.62537L41.9975 2.70093C42.1427 2.159 41.8213 1.60199 41.2794 1.45679C40.7379 1.31158 40.1808 1.63294 40.0356 2.17487Z" fill="white"/>
</g>
<defs>
<clipPath id="clip0_2249_2059">
<rect width="52" height="52" fill="white"/>
</clipPath>
</defs>
</svg>
