<svg width="39" height="39" viewBox="0 0 39 39" fill="none" xmlns="http://www.w3.org/2000/svg">
<path d="M13.2825 14.5371L10.6505 17.1708L13.2825 19.8046C13.4145 19.9276 13.5204 20.0759 13.5938 20.2408C13.6673 20.4056 13.7068 20.5835 13.71 20.764C13.7131 20.9444 13.6799 21.1236 13.6124 21.2909C13.5448 21.4583 13.4442 21.6103 13.3166 21.7379C13.189 21.8655 13.037 21.966 12.8697 22.0336C12.7024 22.1012 12.5231 22.1344 12.3427 22.1312C12.1623 22.128 11.9843 22.0885 11.8195 22.0151C11.6547 21.9417 11.5063 21.8358 11.3833 21.7037L7.79998 18.1204C7.67516 17.9958 7.57614 17.8478 7.50858 17.6848C7.44102 17.5219 7.40625 17.3472 7.40625 17.1708C7.40625 16.9944 7.44102 16.8198 7.50858 16.6568C7.57614 16.4939 7.67516 16.3459 7.79998 16.2212L11.3833 12.6379C11.5063 12.5059 11.6547 12.4 11.8195 12.3266C11.9843 12.2531 12.1623 12.2136 12.3427 12.2104C12.5231 12.2073 12.7024 12.2404 12.8697 12.308C13.037 12.3756 13.189 12.4762 13.3166 12.6038C13.4442 12.7314 13.5448 12.8834 13.6124 13.0507C13.6799 13.218 13.7131 13.3973 13.71 13.5777C13.7068 13.7581 13.6673 13.936 13.5938 14.1009C13.5204 14.2657 13.4145 14.4141 13.2825 14.5371ZM31.1991 16.2212L27.6158 12.6379C27.4928 12.5059 27.3444 12.4 27.1796 12.3266C27.0148 12.2531 26.8368 12.2136 26.6564 12.2104C26.476 12.2073 26.2968 12.2404 26.1294 12.308C25.9621 12.3756 25.8101 12.4762 25.6825 12.6038C25.5549 12.7314 25.4543 12.8834 25.3867 13.0507C25.3192 13.218 25.286 13.3973 25.2892 13.5777C25.2923 13.7581 25.3318 13.936 25.4053 14.1009C25.4787 14.2657 25.5846 14.4141 25.7166 14.5371L28.3486 17.1708L25.7166 19.8046C25.5846 19.9276 25.4787 20.0759 25.4053 20.2408C25.3318 20.4056 25.2923 20.5835 25.2892 20.764C25.286 20.9444 25.3192 21.1236 25.3867 21.2909C25.4543 21.4583 25.5549 21.6103 25.6825 21.7379C25.8101 21.8655 25.9621 21.966 26.1294 22.0336C26.2968 22.1012 26.476 22.1344 26.6564 22.1312C26.8368 22.128 27.0148 22.0885 27.1796 22.0151C27.3444 21.9417 27.4928 21.8358 27.6158 21.7037L31.1991 18.1204C31.3239 17.9958 31.423 17.8478 31.4905 17.6848C31.5581 17.5219 31.5929 17.3472 31.5929 17.1708C31.5929 16.9944 31.5581 16.8198 31.4905 16.6568C31.423 16.4939 31.3239 16.3459 31.1991 16.2212Z" fill="white" fill-opacity="0.51"/>
<path d="M35.6802 3.2675C34.4591 2.17884 33.0326 1.34538 31.4846 0.816151C29.9366 0.286923 28.2984 0.0726163 26.6663 0.185837H12.333C4.42101 0.185837 0.239258 4.36759 0.239258 12.2796V21.2379C0.239258 26.0073 1.23901 29.1051 3.38542 30.9846C5.75043 33.0522 9.23522 33.3317 12.333 33.3317H13.2288C13.3609 33.3618 13.4838 33.4232 13.5872 33.5108L16.2747 37.0942C16.6402 37.6131 17.1225 38.0391 17.6826 38.3378C18.2427 38.6365 18.8651 38.7997 19.4997 38.8142C20.1342 38.7993 20.7564 38.6359 21.3165 38.3372C21.8765 38.0385 22.3588 37.6128 22.7247 37.0942L25.4122 33.5108C25.4538 33.4551 25.5079 33.4099 25.5701 33.3788C25.6323 33.3477 25.7009 33.3315 25.7705 33.3317H26.6663C34.5783 33.3317 38.7601 29.1499 38.7601 21.2379V12.2796C38.8736 10.6479 38.6596 9.01007 38.1307 7.46237C37.6018 5.91467 36.7686 4.4884 35.6802 3.2675ZM36.0726 21.2379C36.0726 27.6557 33.0841 30.6442 26.6663 30.6442H25.7705C25.2839 30.6453 24.8043 30.7591 24.3691 30.9767C23.9339 31.1943 23.555 31.5097 23.2622 31.8983L20.5747 35.4817C20.4708 35.6765 20.3159 35.8394 20.1265 35.953C19.9372 36.0667 19.7205 36.1267 19.4997 36.1267C19.2789 36.1267 19.0622 36.0667 18.8728 35.953C18.6835 35.8394 18.5286 35.6765 18.4247 35.4817L15.7372 31.8983C15.4331 31.5221 15.0518 31.2154 14.6191 30.9991C14.1864 30.7827 13.7123 30.6617 13.2288 30.6442H12.333C8.65113 30.6442 6.50472 30.1407 5.15559 28.9618C3.63447 27.6306 2.92676 25.176 2.92676 21.2379V12.2796C2.92676 5.86184 5.91526 2.87334 12.333 2.87334H26.6663C27.9445 2.76865 29.2308 2.91735 30.4514 3.31089C31.672 3.70443 32.8029 4.33509 33.7793 5.16667C34.6106 6.14315 35.2411 7.27407 35.6346 8.49463C36.0281 9.71519 36.177 11.0014 36.0726 12.2796V21.2379ZM22.5258 13.5194L18.9425 21.8811C18.8764 22.0482 18.7775 22.2004 18.6515 22.3286C18.5256 22.4568 18.3753 22.5584 18.2094 22.6275C18.0435 22.6965 17.8654 22.7316 17.6857 22.7307C17.5061 22.7297 17.3284 22.6927 17.1632 22.6219C16.9981 22.5511 16.8488 22.4479 16.7243 22.3183C16.5997 22.1888 16.5024 22.0356 16.4381 21.8678C16.3738 21.7 16.3438 21.521 16.3499 21.3414C16.356 21.1619 16.398 20.9853 16.4736 20.8223L20.0569 12.4605C20.123 12.2934 20.2219 12.1413 20.3478 12.0131C20.4737 11.8849 20.6241 11.7833 20.79 11.7142C20.9559 11.6451 21.1339 11.61 21.3136 11.611C21.4933 11.6119 21.671 11.6489 21.8361 11.7198C22.0013 11.7906 22.1505 11.8938 22.2751 12.0233C22.3996 12.1529 22.4969 12.3061 22.5612 12.4739C22.6255 12.6416 22.6555 12.8206 22.6494 13.0002C22.6434 13.1798 22.6013 13.3564 22.5258 13.5194Z" fill="white"/>
</svg>
