<svg width="37" height="37" viewBox="0 0 37 37" fill="none" xmlns="http://www.w3.org/2000/svg">
<g clip-path="url(#clip0_2249_2033)">
<path d="M17.4883 35.5547C17.4883 36.353 16.8413 37 16.043 37H7.73242C4.54455 37 1.95117 34.4066 1.95117 31.2188V5.78125C1.95117 2.59338 4.54455 0 7.73242 0H25.5019C28.6894 0 31.2831 2.59338 31.2831 5.78125V21.1016C31.2831 21.8999 30.6358 22.5469 29.8378 22.5469C29.0395 22.5469 28.3925 21.8999 28.3925 21.1016V5.78125C28.3925 4.18745 27.0956 2.89062 25.5019 2.89062H7.73242C6.13862 2.89062 4.8418 4.18745 4.8418 5.78125V31.2188C4.8418 32.8125 6.13862 34.1094 7.73242 34.1094H16.043C16.8413 34.1094 17.4883 34.7564 17.4883 35.5547ZM34.517 23.5397C33.868 23.075 32.9653 23.2246 32.5006 23.8733L25.3765 33.8245C25.182 34.0501 24.9381 34.0986 24.8077 34.1074C24.6728 34.1161 24.4119 34.0992 24.1881 33.8861L19.5761 29.4576C19.0005 28.9048 18.0856 28.9232 17.5326 29.4991C16.9796 30.0749 16.9982 30.9898 17.5741 31.5425L22.1906 35.9756C22.8822 36.6336 23.805 37 24.7546 37C24.8362 37 24.9181 36.9972 24.9999 36.9918C26.0342 36.9229 27 36.4199 27.6495 35.6114C27.6661 35.5908 27.6825 35.5694 27.698 35.5476L34.8509 25.5561C35.3156 24.9071 35.1662 24.0043 34.517 23.5397ZM24.0565 8.67188H9.16983C8.37152 8.67188 7.72452 9.31888 7.72452 10.1172C7.72452 10.9155 8.37152 11.5625 9.16983 11.5625H24.0565C24.8546 11.5625 25.5019 10.9155 25.5019 10.1172C25.5019 9.31888 24.8546 8.67188 24.0565 8.67188ZM25.5019 15.8984C25.5019 15.1001 24.8546 14.4531 24.0565 14.4531H9.16983C8.37152 14.4531 7.72452 15.1001 7.72452 15.8984C7.72452 16.6967 8.37152 17.3438 9.16983 17.3438H24.0565C24.8546 17.3438 25.5019 16.6967 25.5019 15.8984ZM9.16983 20.2344C8.37152 20.2344 7.72452 20.8814 7.72452 21.6797C7.72452 22.478 8.37152 23.125 9.16983 23.125H18.2109C19.0092 23.125 19.6562 22.478 19.6562 21.6797C19.6562 20.8814 19.0092 20.2344 18.2109 20.2344H9.16983Z" fill="white"/>
</g>
<defs>
<clipPath id="clip0_2249_2033">
<rect width="37" height="37" fill="white"/>
</clipPath>
</defs>
</svg>
