<svg width="34" height="34" viewBox="0 0 34 34" fill="none" xmlns="http://www.w3.org/2000/svg">
<path d="M29 0.875H5C2.72 0.875 0.875 2.72 0.875 5V29C0.875 31.28 2.72 33.125 5 33.125H29C31.28 33.125 33.125 31.28 33.125 29V5C33.125 2.72 31.28 0.875 29 0.875ZM3.125 5C3.125 3.965 3.965 3.125 5 3.125H29C30.035 3.125 30.875 3.965 30.875 5V6.875H3.125V5ZM30.875 29C30.875 30.035 30.035 30.875 29 30.875H5C3.965 30.875 3.125 30.035 3.125 29V9.125H30.875V29ZM6.95 20.795C6.515 20.36 6.515 19.64 6.95 19.205L10.7 15.455C11.135 15.02 11.855 15.02 12.29 15.455C12.725 15.89 12.725 16.61 12.29 17.045L9.335 20L12.29 22.955C12.725 23.39 12.725 24.11 12.29 24.545C12.065 24.77 11.78 24.875 11.495 24.875C11.21 24.875 10.925 24.77 10.7 24.545L6.95 20.795ZM21.695 22.955L24.65 20L21.695 17.045C21.26 16.61 21.26 15.89 21.695 15.455C22.13 15.02 22.85 15.02 23.285 15.455L27.035 19.205C27.47 19.64 27.47 20.36 27.035 20.795L23.285 24.545C23.06 24.77 22.775 24.875 22.49 24.875C22.205 24.875 21.92 24.77 21.695 24.545C21.26 24.11 21.26 23.39 21.695 22.955ZM14.075 25.67L17.75 13.67C17.93 13.085 18.56 12.74 19.16 12.92C19.76 13.1 20.09 13.73 19.91 14.33L16.235 26.33C16.085 26.81 15.635 27.125 15.155 27.125C15.05 27.125 14.93 27.11 14.825 27.08C14.225 26.9 13.895 26.27 14.075 25.67Z" fill="white"/>
</svg>
