<svg width="55" height="55" viewBox="0 0 55 55" fill="none" xmlns="http://www.w3.org/2000/svg">
<path d="M45.2835 36.4136H33.7225C33.3578 36.4136 33.0081 36.5584 32.7502 36.8163C32.4924 37.0742 32.3475 37.4239 32.3475 37.7886C32.3475 38.1532 32.4924 38.503 32.7502 38.7608C33.0081 39.0187 33.3578 39.1636 33.7225 39.1636H45.2835C46.3771 39.165 47.4254 39.6001 48.1987 40.3734C48.972 41.1466 49.407 42.195 49.4085 43.2886V47.6666C49.4075 48.7603 48.9726 49.8089 48.1992 50.5823C47.4259 51.3557 46.3772 51.7906 45.2835 51.7916H9.7168C8.62245 51.7916 7.57286 51.3571 6.79869 50.5836C6.02452 49.8101 5.5891 48.7609 5.58813 47.6666V43.2886C5.58959 42.195 6.02465 41.1466 6.79792 40.3734C7.5712 39.6001 8.61956 39.165 9.71313 39.1636H21.2631C21.6278 39.1636 21.9776 39.0187 22.2354 38.7608C22.4933 38.503 22.6381 38.1532 22.6381 37.7886C22.6381 37.4239 22.4933 37.0742 22.2354 36.8163C21.9776 36.5584 21.6278 36.4136 21.2631 36.4136H9.7168C7.89403 36.4155 6.14648 37.1405 4.85758 38.4294C3.56869 39.7183 2.84374 41.4658 2.8418 43.2886V47.6666C2.84374 49.4893 3.56869 51.2369 4.85758 52.5258C6.14648 53.8147 7.89403 54.5396 9.7168 54.5416H45.2835C47.1066 54.5401 48.8546 53.8154 50.1439 52.5264C51.4332 51.2375 52.1584 49.4897 52.1603 47.6666V43.2886C52.1584 41.4655 51.4332 39.7177 50.1439 38.4287C48.8546 37.1398 47.1066 36.415 45.2835 36.4136Z" fill="#1351D8"/>
<path d="M11.7568 45.4796C11.7568 45.8132 11.8558 46.1393 12.0411 46.4167C12.2264 46.6941 12.4898 46.9103 12.798 47.0379C13.1062 47.1656 13.4454 47.199 13.7726 47.1339C14.0997 47.0688 14.4003 46.9082 14.6362 46.6723C14.872 46.4364 15.0327 46.1359 15.0978 45.8087C15.1628 45.4815 15.1294 45.1424 15.0018 44.8342C14.8741 44.526 14.6579 44.2626 14.3806 44.0772C14.1032 43.8919 13.7771 43.793 13.4435 43.793C13.222 43.793 13.0027 43.8366 12.798 43.9214C12.5934 44.0061 12.4075 44.1304 12.2508 44.287C12.0942 44.4436 11.97 44.6295 11.8852 44.8342C11.8005 45.0388 11.7568 45.2581 11.7568 45.4796Z" fill="#1351D8"/>
<path d="M19.9541 45.4796C19.9541 45.8132 20.053 46.1393 20.2384 46.4167C20.4237 46.6941 20.6871 46.9103 20.9953 47.0379C21.3035 47.1656 21.6426 47.199 21.9698 47.1339C22.297 47.0688 22.5975 46.9082 22.8334 46.6723C23.0693 46.4364 23.2299 46.1359 23.295 45.8087C23.3601 45.4815 23.3267 45.1424 23.199 44.8342C23.0714 44.526 22.8552 44.2626 22.5778 44.0772C22.3005 43.8919 21.9744 43.793 21.6408 43.793C21.4193 43.793 21.1999 43.8366 20.9953 43.9214C20.7907 44.0061 20.6047 44.1304 20.4481 44.287C20.2915 44.4436 20.1673 44.6295 20.0825 44.8342C19.9977 45.0388 19.9541 45.2581 19.9541 45.4796Z" fill="#1351D8"/>
<path d="M38.9346 46.5833V44.3833C38.9346 44.0186 38.7897 43.6689 38.5318 43.411C38.274 43.1532 37.9242 43.0083 37.5596 43.0083C37.1949 43.0083 36.8452 43.1532 36.5873 43.411C36.3294 43.6689 36.1846 44.0186 36.1846 44.3833V46.5833C36.1846 46.948 36.3294 47.2977 36.5873 47.5556C36.8452 47.8134 37.1949 47.9583 37.5596 47.9583C37.9242 47.9583 38.274 47.8134 38.5318 47.5556C38.7897 47.2977 38.9346 46.948 38.9346 46.5833Z" fill="#1351D8"/>
<path d="M44.46 46.5833V44.3833C44.46 44.0186 44.3151 43.6689 44.0572 43.411C43.7994 43.1532 43.4496 43.0083 43.085 43.0083C42.7203 43.0083 42.3706 43.1532 42.1127 43.411C41.8548 43.6689 41.71 44.0186 41.71 44.3833V46.5833C41.71 46.948 41.8548 47.2977 42.1127 47.5556C42.3706 47.8134 42.7203 47.9583 43.085 47.9583C43.4496 47.9583 43.7994 47.8134 44.0572 47.5556C44.3151 47.2977 44.46 46.948 44.46 46.5833Z" fill="#1351D8"/>
<path d="M45.2832 0.458496H9.71656C7.89315 0.459467 6.14466 1.18399 4.85497 2.47299C3.56529 3.76198 2.83983 5.51009 2.83789 7.3335V11.7335C2.83983 13.5563 3.56478 15.3038 4.85368 16.5927C6.14257 17.8816 7.89012 18.6066 9.71289 18.6085H45.2832C47.106 18.6066 48.8535 17.8816 50.1424 16.5927C51.4313 15.3038 52.1563 13.5563 52.1582 11.7335V7.3335C52.1563 5.51073 51.4313 3.76317 50.1424 2.47428C48.8535 1.18539 47.106 0.460437 45.2832 0.458496ZM49.4119 11.7335C49.4109 12.8272 48.976 13.8759 48.2026 14.6492C47.4292 15.4226 46.3806 15.8575 45.2869 15.8585H9.71656C8.6222 15.8585 7.57261 15.424 6.79844 14.6505C6.02427 13.8771 5.58886 12.8279 5.58789 11.7335V7.3335C5.58886 6.23914 6.02427 5.18994 6.79844 4.41646C7.57261 3.64298 8.6222 3.2085 9.71656 3.2085H45.2832C46.3776 3.2085 47.4272 3.64298 48.2013 4.41646C48.9755 5.18994 49.4109 6.23914 49.4119 7.3335V11.7335Z" fill="#1351D8"/>
<path d="M13.453 7.84277C13.1189 7.84241 12.7922 7.94118 12.5143 8.12657C12.2363 8.31197 12.0196 8.57566 11.8916 8.88427C11.7636 9.19287 11.73 9.53253 11.7951 9.86023C11.8601 10.1879 12.021 10.489 12.2572 10.7252C12.4935 10.9615 12.7945 11.1223 13.1222 11.1874C13.4499 11.2525 13.7896 11.2189 14.0982 11.0909C14.4068 10.9629 14.6705 10.7462 14.8559 10.4682C15.0413 10.1903 15.1401 9.86355 15.1397 9.52944C15.1392 9.08226 14.9614 8.65353 14.6451 8.33732C14.3289 8.02112 13.9002 7.84326 13.453 7.84277Z" fill="#1351D8"/>
<path d="M21.6503 7.84277C21.3162 7.84241 20.9895 7.94118 20.7115 8.12657C20.4336 8.31197 20.2169 8.57566 20.0888 8.88427C19.9608 9.19287 19.9272 9.53253 19.9923 9.86023C20.0574 10.1879 20.2183 10.489 20.4545 10.7252C20.6908 10.9615 20.9918 11.1223 21.3195 11.1874C21.6472 11.2525 21.9869 11.2189 22.2955 11.0909C22.6041 10.9629 22.8678 10.7462 23.0532 10.4682C23.2386 10.1903 23.3373 9.86355 23.337 9.52944C23.337 9.08211 23.1593 8.6531 22.8429 8.33679C22.5266 8.02048 22.0976 7.84277 21.6503 7.84277Z" fill="#1351D8"/>
<path d="M37.5664 7.05273C37.2017 7.05273 36.852 7.1976 36.5941 7.45546C36.3363 7.71333 36.1914 8.06306 36.1914 8.42773V10.6332C36.1914 10.9979 36.3363 11.3476 36.5941 11.6055C36.852 11.8634 37.2017 12.0082 37.5664 12.0082C37.9311 12.0082 38.2808 11.8634 38.5387 11.6055C38.7965 11.3476 38.9414 10.9979 38.9414 10.6332V8.43323C38.9421 8.2522 38.9071 8.07281 38.8383 7.90536C38.7695 7.7379 38.6684 7.58567 38.5406 7.45741C38.4129 7.32914 38.2611 7.22737 38.0939 7.15792C37.9267 7.08848 37.7474 7.05273 37.5664 7.05273Z" fill="#1351D8"/>
<path d="M43.0928 7.05273C42.7281 7.05273 42.3784 7.1976 42.1205 7.45546C41.8626 7.71333 41.7178 8.06306 41.7178 8.42773V10.6332C41.7178 10.9979 41.8626 11.3476 42.1205 11.6055C42.3784 11.8634 42.7281 12.0082 43.0928 12.0082C43.4574 12.0082 43.8072 11.8634 44.065 11.6055C44.3229 11.3476 44.4678 10.9979 44.4678 10.6332V8.43323C44.4685 8.2522 44.4335 8.07281 44.3647 7.90536C44.2959 7.7379 44.1948 7.58567 44.067 7.45741C43.9392 7.32914 43.7874 7.22737 43.6202 7.15792C43.4531 7.08848 43.2738 7.05273 43.0928 7.05273Z" fill="#1351D8"/>
<path d="M27.4995 39.908C27.8642 39.908 28.214 39.7631 28.4718 39.5053C28.7297 39.2474 28.8745 38.8977 28.8745 38.533V27.0637L33.0142 31.1795C33.1405 31.3142 33.2926 31.4221 33.4615 31.4968C33.6303 31.5714 33.8125 31.6113 33.9971 31.614C34.1817 31.6168 34.365 31.5823 34.536 31.5126C34.707 31.443 34.8622 31.3396 34.9924 31.2087C35.1226 31.0778 35.2251 30.922 35.2938 30.7506C35.3624 30.5792 35.3959 30.3957 35.3921 30.2111C35.3884 30.0265 35.3474 29.8446 35.2718 29.6761C35.1962 29.5077 35.0875 29.3562 34.952 29.2307L28.4694 22.781C28.451 22.7627 28.4254 22.7572 28.407 22.7407C28.2952 22.6362 28.167 22.5507 28.0275 22.4877H28.0165C27.9434 22.4665 27.8686 22.4518 27.7929 22.4437C27.6977 22.412 27.5993 22.3911 27.4995 22.3813C27.4006 22.3895 27.3028 22.4085 27.208 22.4382C27.133 22.4463 27.0587 22.461 26.9862 22.4822H26.9734C26.8347 22.5457 26.7072 22.6311 26.5957 22.7352C26.5755 22.7517 26.5517 22.7572 26.5315 22.7755L20.0507 29.2252C19.9153 29.3507 19.8065 29.5022 19.7309 29.6706C19.6553 29.8391 19.6144 30.021 19.6106 30.2056C19.6069 30.3902 19.6403 30.5737 19.709 30.7451C19.7777 30.9165 19.8801 31.0723 20.0103 31.2032C20.1405 31.3341 20.2957 31.4375 20.4667 31.5071C20.6377 31.5768 20.821 31.6113 21.0056 31.6085C21.1903 31.6058 21.3724 31.5659 21.5413 31.4913C21.7102 31.4166 21.8623 31.3087 21.9886 31.174L26.1264 27.0582V38.5275C26.1257 38.7084 26.1606 38.8876 26.2293 39.055C26.298 39.2223 26.399 39.3745 26.5265 39.5027C26.6541 39.6309 26.8057 39.7327 26.9726 39.8023C27.1396 39.8718 27.3187 39.9078 27.4995 39.908Z" fill="#1351D8"/>
</svg>
