<svg width="57" height="51" viewBox="0 0 57 51" fill="none" xmlns="http://www.w3.org/2000/svg">
<path d="M40.9688 29.0625C19.5938 29.0625 19.5938 14.8125 40.9688 14.8125C62.3438 14.8125 62.3438 29.0625 40.9688 29.0625ZM40.9688 18.375C32.8641 18.375 28.5 20.9044 28.5 21.9375C28.5 22.9706 32.8641 25.5 40.9688 25.5C49.0734 25.5 53.4375 22.9706 53.4375 21.9375C53.4375 20.9044 49.0734 18.375 40.9688 18.375Z" fill="#1351D8"/>
<path d="M24.9375 32.625V21.9375C24.9375 21.4651 25.1252 21.012 25.4592 20.678C25.7933 20.3439 26.2463 20.1562 26.7188 20.1562C27.1912 20.1562 27.6442 20.3439 27.9783 20.678C28.3123 21.012 28.5 21.4651 28.5 21.9375C28.5 22.9706 32.8641 25.5 40.9688 25.5C49.0734 25.5 53.4375 22.9706 53.4375 21.9375C53.4375 21.4651 53.6252 21.012 53.9592 20.678C54.2933 20.3439 54.7463 20.1562 55.2188 20.1562C55.6912 20.1562 56.1442 20.3439 56.4783 20.678C56.8123 21.012 57 21.4651 57 21.9375V32.625C57 42.0834 24.9375 42.1191 24.9375 32.625ZM28.5 26.5866V32.625C28.5 33.6581 32.8641 36.1875 40.9688 36.1875C49.0734 36.1875 53.4375 33.6581 53.4375 32.625V26.5866C47.2566 29.8641 34.6809 29.8641 28.5 26.5866Z" fill="#1351D8"/>
<path d="M24.9375 43.3125V32.625C24.9375 32.1526 25.1252 31.6995 25.4592 31.3655C25.7933 31.0314 26.2463 30.8438 26.7188 30.8438C27.1912 30.8438 27.6442 31.0314 27.9783 31.3655C28.3123 31.6995 28.5 32.1526 28.5 32.625C28.5 33.6581 32.8641 36.1875 40.9688 36.1875C49.0734 36.1875 53.4375 33.6581 53.4375 32.625C53.4375 32.1526 53.6252 31.6995 53.9592 31.3655C54.2933 31.0314 54.7463 30.8438 55.2188 30.8438C55.6912 30.8438 56.1442 31.0314 56.4783 31.3655C56.8123 31.6995 57 32.1526 57 32.625V43.3125C57 52.7709 24.9375 52.8066 24.9375 43.3125ZM28.5 37.2741V43.3125C28.5 44.3456 32.8641 46.875 40.9688 46.875C49.0734 46.875 53.4375 44.3456 53.4375 43.3125V37.2741C47.2566 40.5516 34.6809 40.5516 28.5 37.2741Z" fill="#1351D8"/>
<path d="M16.0312 14.8091C-5.34375 14.8091 -5.34375 0.559082 16.0312 0.559082C37.4062 0.559082 37.4062 14.8091 16.0312 14.8091ZM16.0312 4.12158C7.92656 4.12158 3.5625 6.65096 3.5625 7.68408C3.5625 8.71721 7.92656 11.2466 16.0312 11.2466C24.1359 11.2466 28.5 8.71721 28.5 7.68408C28.5 6.65096 24.1359 4.12158 16.0312 4.12158Z" fill="#1351D8"/>
<path d="M0 18.375V7.6875C0 7.21508 0.187667 6.76202 0.521716 6.42797C0.855765 6.09392 1.30883 5.90625 1.78125 5.90625C2.25367 5.90625 2.70673 6.09392 3.04078 6.42797C3.37483 6.76202 3.5625 7.21508 3.5625 7.6875C3.5625 8.72062 7.92656 11.25 16.0312 11.25C24.1359 11.25 28.5 8.72062 28.5 7.6875C28.5 7.21508 28.6877 6.76202 29.0217 6.42797C29.3558 6.09392 29.8088 5.90625 30.2812 5.90625C30.7537 5.90625 31.2067 6.09392 31.5408 6.42797C31.8748 6.76202 32.0625 7.21508 32.0625 7.6875V18.0009C32.0625 18.4734 31.8748 18.9264 31.5408 19.2605C31.2067 19.5945 30.7537 19.7822 30.2812 19.7822C29.8088 19.7822 29.3558 19.5945 29.0217 19.2605C28.6877 18.9264 28.5 18.4734 28.5 18.0009V12.3366C22.3191 15.6141 9.74344 15.6141 3.5625 12.3366V18.375C3.5625 18.6778 3.90094 19.0875 4.47094 19.4794C8.03344 22.0087 18.9347 22.935 25.4897 20.4947C25.9292 20.3324 26.415 20.3499 26.8417 20.5432C27.2685 20.7366 27.6019 21.0904 27.7697 21.5278C27.8523 21.7476 27.8906 21.9816 27.8825 22.2163C27.8743 22.451 27.8198 22.6818 27.7222 22.8953C27.6245 23.1089 27.4856 23.301 27.3134 23.4607C27.1411 23.6203 26.9391 23.7444 26.7188 23.8256C18.0797 27.0675 0 25.6425 0 18.375Z" fill="#1351D8"/>
<path d="M16.0313 36.1875C8.06907 36.1875 0 33.7472 0 29.0625V18.375C0 17.9026 0.187667 17.4495 0.521716 17.1155C0.855765 16.7814 1.30883 16.5938 1.78125 16.5938C2.25367 16.5938 2.70674 16.7814 3.04078 17.1155C3.37483 17.4495 3.5625 17.9026 3.5625 18.375C3.5625 18.66 3.91875 19.0875 4.50656 19.4794C8.30063 22.0622 19.0416 23.0419 25.6856 20.4056C25.9054 20.3082 26.1426 20.2562 26.383 20.2529C26.6234 20.2496 26.862 20.295 27.0844 20.3863C27.3068 20.4777 27.5083 20.6131 27.677 20.7844C27.8456 20.9558 27.9779 21.1594 28.0657 21.3832C28.1535 21.607 28.1952 21.8463 28.1881 22.0866C28.181 22.3269 28.1253 22.5633 28.0244 22.7815C27.9235 22.9997 27.7795 23.1953 27.601 23.3563C27.4226 23.5174 27.2133 23.6407 26.9859 23.7187C20.2172 26.3906 9.17344 25.9809 3.5625 23.0597V29.0625C3.5625 30.0956 7.92656 32.625 16.0313 32.625C17.1891 32.625 18.3291 32.625 19.4156 32.4647C19.6495 32.4413 19.8858 32.4642 20.1108 32.5321C20.3359 32.6 20.5454 32.7116 20.7273 32.8604C20.9093 33.0093 21.0601 33.1926 21.1713 33.3997C21.2824 33.6069 21.3516 33.8339 21.375 34.0678C21.3984 34.3017 21.3755 34.538 21.3076 34.763C21.2397 34.9881 21.1281 35.1976 20.9792 35.3795C20.8304 35.5615 20.6471 35.7123 20.44 35.8234C20.2328 35.9346 20.0058 36.0038 19.7719 36.0272C18.5285 36.1436 17.28 36.1971 16.0313 36.1875Z" fill="#1351D8"/>
<path d="M40.9693 11.25C40.0074 11.25 39.954 10.9828 36.1421 7.1709C35.9752 7.00531 35.8427 6.80831 35.7522 6.59124C35.6618 6.37418 35.6152 6.14136 35.6152 5.90622C35.6152 5.67107 35.6618 5.43825 35.7522 5.22119C35.8427 5.00413 35.9752 4.80712 36.1421 4.64153L39.7046 1.07903C40.04 0.743611 40.495 0.555176 40.9693 0.555176C41.4437 0.555176 41.8986 0.743611 42.234 1.07903C42.5694 1.41444 42.7578 1.86936 42.7578 2.34371C42.7578 2.81806 42.5694 3.27299 42.234 3.6084L39.9184 5.90622L42.234 8.20403C42.4852 8.45317 42.6565 8.77149 42.7261 9.11838C42.7957 9.46527 42.7604 9.82504 42.6248 10.1518C42.4891 10.4786 42.2592 10.7575 41.9643 10.9531C41.6695 11.1487 41.3231 11.252 40.9693 11.25Z" fill="#1351D8"/>
<path d="M48.0938 13.0312C47.6213 13.0312 47.1683 12.8436 46.8342 12.5095C46.5002 12.1755 46.3125 11.7224 46.3125 11.25C46.3125 10.3052 45.9372 9.39903 45.2691 8.73093C44.601 8.06283 43.6948 7.6875 42.75 7.6875H39.1875C38.7151 7.6875 38.262 7.49983 37.928 7.16578C37.5939 6.83173 37.4062 6.37867 37.4062 5.90625C37.4062 5.43383 37.5939 4.98077 37.928 4.64672C38.262 4.31267 38.7151 4.125 39.1875 4.125H42.75C49.5366 4.125 51.8344 13.0312 48.0938 13.0312Z" fill="#1351D8"/>
<path d="M16.0318 50.4375C15.678 50.4395 15.3316 50.3362 15.0368 50.1406C14.742 49.945 14.5121 49.6661 14.3764 49.3393C14.2407 49.0125 14.2054 48.6528 14.275 48.3059C14.3446 47.959 14.5159 47.6407 14.7672 47.3915L17.0828 45.0937L14.7672 42.7959C14.4317 42.4605 14.2433 42.0056 14.2433 41.5312C14.2433 41.0569 14.4317 40.6019 14.7672 40.2665C15.1026 39.9311 15.5575 39.7427 16.0318 39.7427C16.5062 39.7427 16.9611 39.9311 17.2965 40.2665L20.859 43.829C21.026 43.9946 21.1585 44.1916 21.2489 44.4087C21.3394 44.6257 21.3859 44.8586 21.3859 45.0937C21.3859 45.3289 21.3394 45.5617 21.2489 45.7787C21.1585 45.9958 21.026 46.1928 20.859 46.3584C16.9759 50.2415 16.9937 50.4375 16.0318 50.4375Z" fill="#1351D8"/>
<path d="M17.8125 46.875H14.25C12.3603 46.875 10.5481 46.1243 9.21186 44.7881C7.87567 43.4519 7.125 41.6397 7.125 39.75C7.125 39.2776 7.31267 38.8245 7.64672 38.4905C7.98077 38.1564 8.43383 37.9688 8.90625 37.9688C9.37867 37.9688 9.83173 38.1564 10.1658 38.4905C10.4998 38.8245 10.6875 39.2776 10.6875 39.75C10.6875 40.6948 11.0628 41.601 11.7309 42.2691C12.399 42.9372 13.3052 43.3125 14.25 43.3125H17.8125C18.2849 43.3125 18.738 43.5002 19.072 43.8342C19.4061 44.1683 19.5938 44.6213 19.5938 45.0938C19.5938 45.5662 19.4061 46.0192 19.072 46.3533C18.738 46.6873 18.2849 46.875 17.8125 46.875Z" fill="#1351D8"/>
</svg>
