<svg width="38" height="38" viewBox="0 0 38 38" fill="none" xmlns="http://www.w3.org/2000/svg">
<g clip-path="url(#clip0_2659_634)">
<path d="M0 17.4248V2.60876H14.8161V17.4248H0ZM20.5751 37.9999V23.1839H35.3912V37.9999H20.5751ZM0 37.9999V23.1839H14.8161V37.9999H0ZM2.95337 14.4714H11.8627V5.56214H2.95337V14.4714ZM23.5285 35.0466H32.4379V26.1373H23.5285V35.0466ZM2.95337 35.0466H11.8627V26.1373H2.95337V35.0466Z" fill="#30E87A"/>
<path d="M27.5157 20.9689L17.0312 10.4845L27.5157 0L38.0001 10.4845L27.5157 20.9689ZM27.6634 16.9818L34.0131 10.6321L27.6634 4.28239L21.3136 10.6321L27.6634 16.9818Z" fill="#30E87A"/>
</g>
<defs>
<clipPath id="clip0_2659_634">
<rect width="38" height="38" fill="white"/>
</clipPath>
</defs>
</svg>
