<svg width="20" height="20" viewBox="0 0 20 20" fill="none" xmlns="http://www.w3.org/2000/svg">
<path d="M9.16046 1.29732C9.55452 0.68838 10.4455 0.68838 10.8395 1.29732L11.7217 2.66053C11.9789 3.05794 12.4795 3.22058 12.9211 3.05024L14.4361 2.46591C15.1128 2.2049 15.8336 2.72859 15.7945 3.45285L15.7069 5.07425C15.6814 5.54692 15.9908 5.97274 16.4482 6.09452L18.0173 6.51227C18.7182 6.69888 18.9935 7.54622 18.5362 8.10917L17.5123 9.36944C17.2138 9.73683 17.2138 10.2632 17.5123 10.6306L18.5362 11.8908C18.9935 12.4538 18.7182 13.3011 18.0173 13.4877L16.4482 13.9055C15.9908 14.0273 15.6814 14.4531 15.7069 14.9257L15.7945 16.5471C15.8336 17.2714 15.1128 17.7951 14.4361 17.5341L12.9211 16.9498C12.4795 16.7794 11.9789 16.9421 11.7217 17.3395L10.8395 18.7027C10.4455 19.3116 9.55452 19.3116 9.16046 18.7027L8.27828 17.3395C8.0211 16.9421 7.52052 16.7794 7.07887 16.9498L5.56389 17.5341C4.88716 17.7951 4.16637 17.2714 4.20549 16.5471L4.29306 14.9257C4.31859 14.4531 4.00922 14.0273 3.55179 13.9055L1.98269 13.4877C1.28178 13.3011 1.00646 12.4538 1.46383 11.8908L2.48771 10.6306C2.78619 10.2632 2.78619 9.73683 2.48771 9.36944L1.46382 8.10917C1.00646 7.54622 1.28178 6.69888 1.98269 6.51227L3.55179 6.09452C4.00922 5.97274 4.31859 5.54692 4.29306 5.07425L4.20549 3.45285C4.16637 2.72859 4.88716 2.2049 5.56389 2.46591L7.07887 3.05024C7.52052 3.22058 8.0211 3.05794 8.27828 2.66053L9.16046 1.29732Z" fill="#1351D8"/>
<path d="M13 8L8.875 12.125L7 10.25" stroke="white" stroke-width="1.5" stroke-linecap="round" stroke-linejoin="round"/>
</svg>
