<svg width="23" height="23" viewBox="0 0 23 23" fill="none" xmlns="http://www.w3.org/2000/svg">
<g clip-path="url(#clip0_2659_467)">
<path d="M19.6945 15.985C19.7808 15.8341 19.9569 15.7586 20.1222 15.8125L20.9667 16.0892C21.1572 16.1503 21.3584 16.0461 21.4195 15.8556L22.1383 13.6562H18.3577C17.4448 16.5744 14.7208 18.6875 11.5008 18.6875C8.28078 18.6875 5.55672 16.5744 4.64391 13.6562H0.863281L1.58203 15.8556C1.64313 16.0461 1.84438 16.1503 2.03484 16.0892L2.87938 15.8125C3.04469 15.7586 3.22078 15.8341 3.30703 15.985C3.68797 16.6858 4.15875 17.3327 4.70141 17.9077C4.82 18.0334 4.83797 18.2275 4.73375 18.3677L4.21266 19.0864C4.09406 19.2481 4.13 19.4709 4.29172 19.5895L6.03469 20.8545C6.19641 20.9731 6.42281 20.9372 6.53781 20.7755L7.05891 20.0567C7.16313 19.9166 7.35 19.8734 7.50813 19.9453C8.21609 20.2831 8.97438 20.5347 9.765 20.682C9.9375 20.7144 10.0633 20.8617 10.0633 21.0342V21.9219C10.0633 22.1195 10.225 22.2812 10.4227 22.2812H12.5789C12.7766 22.2812 12.9383 22.1195 12.9383 21.9219V21.0342C12.9383 20.8617 13.0641 20.7144 13.2366 20.682C14.0272 20.5347 14.7855 20.2831 15.4934 19.9453C15.6516 19.8734 15.8384 19.9166 15.9427 20.0567L16.4638 20.7755C16.5788 20.9372 16.8052 20.9731 16.9669 20.8545L18.7098 19.5895C18.8716 19.4709 18.9075 19.2481 18.7889 19.0864L18.2678 18.3677C18.1636 18.2275 18.1816 18.0334 18.3002 17.9077C18.8428 17.3327 19.3136 16.6858 19.6945 15.985Z" fill="#30E87A"/>
<path d="M0.359375 12.2188H22.6406V12.9375H0.359375V12.2188Z" fill="#30E87A"/>
<path d="M1.07812 6.10938H3.95312V11.5H1.07812V6.10938Z" fill="#30E87A"/>
<path d="M9.70312 4.67188H13.2969V11.5H9.70312V4.67188Z" fill="#30E87A"/>
<path d="M19.0469 6.46875H21.9219V11.5H19.0469V6.46875Z" fill="#30E87A"/>
<path d="M14.0156 4.67188V11.5H18.3281V0.71875H14.0156V4.67188ZM16.5312 2.15625H17.25V2.875H16.5312V2.15625ZM16.5312 3.95312H17.25V4.67188H16.5312V3.95312ZM16.5312 5.75H17.25V6.46875H16.5312V5.75ZM15.0938 2.15625H15.8125V2.875H15.0938V2.15625ZM15.0938 3.95312H15.8125V4.67188H15.0938V3.95312ZM15.0938 5.75H15.8125V6.46875H15.0938V5.75Z" fill="#30E87A"/>
<path d="M4.67188 11.5H8.98438V2.875L6.82812 1.07812L4.67188 2.875V11.5ZM5.75 3.59375H7.90625V4.3125H5.75V3.59375ZM5.75 5.39062H7.90625V6.10938H5.75V5.39062Z" fill="#30E87A"/>
</g>
<defs>
<clipPath id="clip0_2659_467">
<rect width="23" height="23" fill="white"/>
</clipPath>
</defs>
</svg>
