<svg width="19" height="19" viewBox="0 0 19 19" fill="none" xmlns="http://www.w3.org/2000/svg">
<path d="M8.63232 12.972V15.576C8.63232 17.0081 7.46043 18.18 6.02831 18.18H3.42431C1.9922 18.18 0.820312 17.0081 0.820312 15.576V12.972C0.820312 11.5399 1.9922 10.368 3.42431 10.368H6.02831C7.46043 10.368 8.63232 11.5399 8.63232 12.972Z" fill="#30E87A"/>
<path d="M8.63232 3.424V6.028C8.63232 7.46012 7.46043 8.632 6.02831 8.632H3.42431C1.9922 8.632 0.820312 7.46012 0.820312 6.028V3.424C0.820312 1.99189 1.9922 0.82 3.42431 0.82H6.02831C7.46043 0.82 8.63232 1.99189 8.63232 3.424Z" fill="#30E87A"/>
<path d="M18.1811 12.972V15.576C18.1811 17.0081 17.0093 18.18 15.5771 18.18H12.9731C11.541 18.18 10.3691 17.0081 10.3691 15.576V12.972C10.3691 11.5399 11.541 10.368 12.9731 10.368H15.5771C17.0093 10.368 18.1811 11.5399 18.1811 12.972Z" fill="#30E87A"/>
<path d="M18.1811 3.424V6.028C18.1811 7.46012 17.0093 8.632 15.5771 8.632H12.9731C11.541 8.632 10.3691 7.46012 10.3691 6.028V3.424C10.3691 1.99189 11.541 0.82 12.9731 0.82H15.5771C17.0093 0.82 18.1811 1.99189 18.1811 3.424Z" fill="#30E87A"/>
</svg>
