<svg width="22" height="22" viewBox="0 0 22 22" fill="none" xmlns="http://www.w3.org/2000/svg">
<g clip-path="url(#clip0_2659_480)">
<path d="M12.6448 5.01155C12.1118 4.86545 11.5584 4.79138 11 4.79138C7.57655 4.79138 4.7914 7.57653 4.7914 11C4.7914 14.4234 7.57655 17.2086 11 17.2086C14.4235 17.2086 17.2086 14.4234 17.2086 11C17.2086 10.4416 17.1345 9.8882 16.9884 9.35518C16.8881 8.98899 17.1035 8.61078 17.4697 8.51041C17.8357 8.41008 18.2141 8.62552 18.3145 8.9917C18.493 9.64315 18.5836 10.3188 18.5836 11C18.5836 15.1816 15.1816 18.5836 11 18.5836C6.81841 18.5836 3.4164 15.1816 3.4164 11C3.4164 6.81838 6.81841 3.41637 11 3.41637C11.6812 3.41637 12.3568 3.50691 13.0083 3.68549C13.3137 3.76919 13.5142 4.04617 13.5142 4.34824C13.5142 4.40835 13.5062 4.46945 13.4896 4.53025C13.3892 4.89643 13.0111 5.11205 12.6448 5.01155ZM20.6945 7.40951C20.3305 7.51731 20.1227 7.89978 20.2305 8.2639C20.4923 9.14819 20.625 10.0687 20.625 11C20.625 16.3072 16.3073 20.625 11 20.625C5.69276 20.625 1.375 16.3072 1.375 11C1.375 5.69273 5.69276 1.37497 11 1.37497C11.9313 1.37497 12.8518 1.5077 13.736 1.76947C14.1001 1.87732 14.4825 1.66944 14.5903 1.30541C14.6096 1.24031 14.6188 1.17469 14.6188 1.11011C14.6189 0.813413 14.4253 0.539573 14.1263 0.451014C13.1153 0.151693 12.0635 -2.93233e-05 11 -2.93233e-05C8.0618 -2.93233e-05 5.29942 1.14419 3.2218 3.22177C1.14422 5.29944 0 8.06177 0 11C0 13.9382 1.14422 16.7006 3.2218 18.7782C5.29938 20.8558 8.0618 22 11 22C13.9382 22 16.7005 20.8558 18.7782 18.7782C20.8558 16.7006 22 13.9382 22 11C22 9.93654 21.8482 8.88467 21.5489 7.87357C21.4412 7.50949 21.0586 7.30187 20.6945 7.40951ZM11 8.24998C11.1011 8.24998 11.2032 8.25556 11.3035 8.26656C11.6811 8.30811 12.0205 8.03556 12.0619 7.65817C12.1033 7.28073 11.8309 6.94119 11.4535 6.89981C11.3035 6.88331 11.151 6.87497 11 6.87497C8.72545 6.87497 6.875 8.72542 6.875 11C6.875 13.2745 8.72545 15.125 11 15.125C13.2746 15.125 15.125 13.2745 15.125 11C15.125 10.6203 14.8172 10.3125 14.4375 10.3125C14.0578 10.3125 13.75 10.6203 13.75 11C13.75 12.5163 12.5164 13.75 11 13.75C9.48364 13.75 8.25 12.5163 8.25 11C8.25 9.48361 9.48364 8.24998 11 8.24998ZM14.5103 6.51752L14.8528 3.08229C14.8685 2.92425 14.9384 2.77661 15.0507 2.66434L17.5138 0.201322C17.7036 0.0116152 17.9862 -0.0503887 18.238 0.0424668C18.4896 0.135322 18.6643 0.366151 18.6854 0.633631L18.8806 3.11937L21.3664 3.31462C21.6338 3.33564 21.8647 3.51035 21.9575 3.76202C22.0504 4.01373 21.9884 4.29646 21.7987 4.48617L19.3356 6.94918C19.2234 7.06146 19.0757 7.13141 18.9177 7.14714L15.4826 7.48977L11.4862 11.4861C11.3519 11.6204 11.176 11.6875 11 11.6875C10.824 11.6875 10.6481 11.6204 10.5139 11.4861C10.2454 11.2176 10.2454 10.7823 10.5139 10.5138L14.5103 6.51752ZM15.9375 6.06261L18.5369 5.80333L19.7716 4.56862L18.1874 4.44419C17.8502 4.41768 17.5824 4.14981 17.5559 3.81263L17.4314 2.22833L16.1966 3.46308L15.9375 6.06261Z" fill="#30E87A"/>
</g>
<defs>
<clipPath id="clip0_2659_480">
<rect width="22" height="22" fill="white"/>
</clipPath>
</defs>
</svg>
